<?xml version="1.0" encoding="UTF-8"?> <!-- Generator: Adobe Illustrator 27.0.1, SVG Export Plug-In . SVG Version: 6.00 Build 0) --> <svg xmlns="http://www.w3.org/2000/svg" xmlns:xlink="http://www.w3.org/1999/xlink" version="1.1" id="Layer_1" x="0px" y="0px" viewBox="0 0 540 360" style="enable-background:new 0 0 540 360;" xml:space="preserve"> <style type="text/css"> .st0{fill:#F4D5F7;} .st1{fill:#FFFFFF;} </style> <path class="st0" d="M491.77,175.58c28.27,27.44,21.45,76.51-8.64,106.61c-50.42,50.45-159.74,41.18-245.43,33.91 c-65.39-5.55-153.43-13.01-183.21-56.21c-12.82-18.6-2.28-25.6-7.93-84.31c-6.99-72.64-25.1-82.37-11.08-100.92 c30.22-39.99,156.75-50.76,233.69-14.05c49.38,23.56,39.85,48.3,99.89,75.37C429.44,163.2,465.49,150.07,491.77,175.58z"></path> <g> <g> <g> <path class="st1" d="M294.94,156.1c0,0-16.71,33.43-33.69,56.51c-6.75,9.18-13.55,16.73-19.35,19.87 c-5.68,3.08-10.48,7.86-14.46,13.16c-10.3,13.72-15.05,30.9-15.05,30.9l-43.41-65.67c0,0,1.48-64.19,6.69-74.93 c7.6-15.65,11.27-47.26,14.18-53.56c2.16-4.67,8.35-28.79,8.94-30.56c0.26-0.76,2.31-1.93,4.99-1.93c2.14,0,5.78,2.07,6.7,6.33 c4.64,21.52-0.95,35.72-0.88,36.35c1.64,16.54-3.29,28.82,0.17,32.07c0.13,0.12,0.37,0.06,0.7-0.15 c5.98-3.84,43.12-57.99,47.7-59.16C263.01,64.11,294.94,156.1,294.94,156.1z"></path> <path d="M295.04,156.11c-5.5,11.13-11.29,21.95-17.55,32.64c-7.96,13.19-16.09,26.57-26.84,37.76c-2.2,2.2-4.54,4.31-7.23,6.02 c-1.12,0.61-2.87,1.66-3.93,2.38c-3.76,2.56-7.01,5.8-9.87,9.33c-7.91,10.07-13.33,22.09-16.93,34.33c0,0-1.01-1.54-1.01-1.54 l-10.8-16.45c-6.71-10.46-25.44-38.81-32.28-49.7c0.55-17.61,1.35-35.21,2.88-52.77c0.66-6.58,1.28-13.21,2.89-19.65 c0.58-2.15,1.63-4.11,2.44-6.18c3.15-8.19,5.05-16.82,6.86-25.39c0,0,2.58-12.95,2.58-12.95c0.91-4.28,1.63-8.83,3.37-12.86 c3.01-8.77,5.78-20.37,8.29-29.36c0.29-1.07,1.49-1.71,2.38-2.07c2.3-0.96,5.15-0.88,7.15,0.57c2.06,1.33,3.53,3.55,3.99,5.92 c0,0,0.63,3.28,0.63,3.28c1.94,10.85,1.69,22.8-1.42,33.17c0.81,7.59,0.1,15.34-0.76,22.85c-0.21,2.16-0.44,4.37-0.22,6.35 c0.12,0.77,0.26,1.5,0.77,2.05c0.12,0.13,0.04,0.03-0.13-0.06c-0.24-0.12-0.41-0.08-0.46-0.08c0.48-0.3,1.4-1.2,1.93-1.79 c14.33-16.65,26.36-35.14,40.54-52.04c1.53-1.73,2.86-3.42,4.75-4.88c0.35-0.24,0.81-0.51,1.28-0.49 c0.75,0.11,0.98,0.43,1.25,0.65c1.26,1.3,1.99,2.85,2.83,4.37C275.52,97.49,284.88,126.93,295.04,156.11L295.04,156.11z M294.85,156.09c-10.77-28.71-20.65-58.11-33.9-85.83c-0.71-1.38-1.82-3.23-2.69-4.08c0.03,0,0.08,0,0.11-0.01 c0.05-0.02,0,0.01,0,0.01c-1.78,1.18-3.24,3.17-4.69,4.81c-5.57,6.75-10.78,13.87-16.06,20.9 c-8.03,10.54-15.56,21.41-24.32,31.41c-1.16,1.15-3.26,3.83-4.73,1.52c-1.78-2.87-0.95-6.59-0.78-9.62 c0.83-7.51,1.55-14.93,0.81-22.44c-0.03-0.22,0.04-0.58,0.08-0.76c2.79-9.4,3.27-19.33,2.01-29.06 c-0.23-1.98-0.71-4.48-1.09-6.44c-0.69-3.91-4.82-6.97-8.63-5.2c-0.51,0.18-1.05,0.51-1.3,0.8c0-0.03-0.03,0.1-0.05,0.14 c0,0-0.22,0.76-0.22,0.76c-0.53,1.81-3.82,13.77-4.44,15.9c-1.24,4.24-2.42,8.47-3.96,12.67c-0.93,2.09-1.49,4-2.01,6.18 c-2.36,10.03-4.52,22.31-7.26,32.22c-1.17,4.26-2.42,8.5-4.1,12.61c-0.82,2.03-1.89,3.96-2.48,6.07 c-1.68,6.36-2.29,12.96-2.98,19.5c-1.73,17.15-2.22,36.16-2.84,52.5c0,0,21.93,32.68,21.93,32.68 c5.49,8.08,16.44,24.6,21.86,32.73c0,0-1.55,0.24-1.55,0.24c3.62-11.93,8.93-23.37,16.74-33.15c3.92-4.86,8.72-9.09,14.27-12 c5.09-3.27,9.24-7.94,13.11-12.58C271.05,199.42,283.26,177.68,294.85,156.09L294.85,156.09z"></path> </g> <g> <path class="st1" d="M225.45,263.55c0,0-0.59,29.18-2.28,68.48c-38.88,2.96-75.96,3.69-109.49,0 c25.03-53.37,46.79-98.29,46.79-98.29S222.81,235.65,225.45,263.55z"></path> <path d="M225.55,263.55c-0.72,21.83-0.89,46.67-1.52,68.53c0,0-0.02,0.76-0.02,0.76s-0.78,0.07-0.78,0.07 c-18.23,1.47-36.53,2.11-54.82,2.04c-15.96-0.01-32.04-0.52-47.96-1.78c0,0-6.83-0.61-6.83-0.61s-0.71-0.06-0.71-0.06 s0.31-0.66,0.31-0.66s11.43-24.7,11.43-24.7c10.84-23.19,24.08-51.35,35.19-74.41c6.66,0.27,13.24,1.07,19.78,2.15 C195.38,237.69,223.47,244.5,225.55,263.55L225.55,263.55z M225.35,263.55c-2.18-16.62-22.65-22.33-36.61-25.41 c-9.31-1.87-18.84-2.99-28.31-3.39c0,0,0.94-0.57,0.94-0.57c-10.79,22.94-24.21,50.81-35.27,73.62c0,0-11.96,24.45-11.96,24.45 s-0.41-0.72-0.41-0.72s6.8,0.75,6.8,0.75c29.46,3.07,59.4,1.82,88.9-0.16c0,0,13.66-0.95,13.66-0.95s-0.8,0.83-0.8,0.83 s0.71-17.1,0.71-17.1C223.81,298.96,224.81,279.5,225.35,263.55L225.35,263.55z"></path> </g> <g> <path class="st1" d="M332.9,42.96l-13.44,19.71L306.26,82c-0.8,0.97-1.74,1.31-2.74,1.21c-3.17-0.3-7.08-4.87-10.13-7.39 l-0.31-0.25c-4.02-3.33-4.59-9.35-1.26-13.37l20.16-24.37v0l5.98-7.23c3.33-4.02,9.35-4.59,13.37-1.26l0.31,0.25 C335.66,32.92,336.22,38.93,332.9,42.96z"></path> <path d="M332.98,43.02c-6.67,9.76-12.45,20.1-19.34,29.71c-2.26,3.23-4.62,6.39-6.92,9.58c-0.9,1.2-2.69,1.7-4.08,1.15 c-3.8-1.46-6.28-4.87-9.34-7.3c-2.13-1.6-3.68-4.1-4.03-6.82c-0.4-2.71,0.45-5.61,2.2-7.75c3.22-4.13,6.48-8.21,9.78-12.28 c3.29-4.06,6.56-8.15,9.91-12.17l-0.25,0.68c0,0,0-0.39,0-0.39c0,0,0.25-0.29,0.25-0.29c1.02-1.22,3.76-4.51,4.77-5.69 c0,0,0.8-0.95,0.8-0.95c2.99-4.07,8.9-5.36,13.2-2.81C335.39,30.64,337.04,38.3,332.98,43.02L332.98,43.02z M332.82,42.9 c7.17-9.29-5.75-20.4-13.78-12.01c0,0-6.24,7.61-6.24,7.61c0,0,0.25-0.69,0.25-0.68c0,0,0,0.38,0,0.38l-0.25,0.3 c-6.69,8.04-13.44,16.04-20.32,23.92c-3.56,3.71-2.97,10.18,1.22,13.24c2.68,2,8.95,9.95,12.15,5.99c1.97-3.1,4.23-6.68,6.36-9.9 C318.64,61.83,326.16,52.67,332.82,42.9L332.82,42.9z"></path> </g> <g> <path class="st1" d="M198.5,52.83l-3.52,14.2c0,0,3.07,1.26,5.05,0.28S203.62,53.59,198.5,52.83z"></path> <path d="M198.56,52.91c-0.22,2.67-0.56,5.04-1.08,7.53c-0.47,2.32-1.68,4.32-2.2,6.66c0,0-0.18-0.35-0.18-0.35 c1.41,0.51,3.38,0.74,4.61-0.15c0.73-1.29,0.9-3.07,1.04-4.57C200.84,59.04,201.58,54.65,198.56,52.91L198.56,52.91z M198.44,52.75c5.78,0.04,5.46,12.13,2.24,15.05c-1.92,1.04-4.18,0.08-6.06-0.58c0.71-2.49,0.65-5.3,1.38-7.8 C196.65,57.14,197.44,54.77,198.44,52.75L198.44,52.75z"></path> </g> <g> <g> <path class="st1" d="M299.64,219.32c-20.57,0.42-46.85,2.8-75.63,0c-7.44,0-13.53-6.09-13.53-13.53V39.56 c0-7.44,6.09-13.53,13.53-13.53c25.99-1.73,51.63,1.13,75.63,0c7.44,0,13.53,6.09,13.53,13.53c0,26.67-0.53,100.39,0,166.23 C313.17,213.23,307.08,219.32,299.64,219.32z"></path> <path d="M299.64,219.42c-25.22,0.78-50.47,2.85-75.69,0.57c-2.33,0.02-5.46-0.71-7.63-2.19c-4.79-3.02-7.03-8.33-6.66-13.89 c0,0-0.04-7.7-0.04-7.7c-0.08-10.27,0.02-20.54,0.03-30.82c0.16-20.43,0.55-72.7,0.53-92.45c0,0-0.09-30.82-0.09-30.82 c-0.06-2.57-0.09-5.31,0.95-7.74c1.93-4.99,6.88-8.62,12.24-8.88c2.59-0.11,5.12-0.34,7.7-0.42 c20.54-0.93,41.11,0.63,61.62,0.22c2.58-0.01,5.17-0.23,7.77-0.22c8.99,0.52,14.65,8.34,13.8,17.04 c0.03,50.59-0.56,103.45-0.86,154.07c-0.09,2.31,0.22,9.24-0.13,11.58C312.3,214.3,306.23,219.55,299.64,219.42L299.64,219.42z M299.64,219.22c6.46,0.07,12.38-5.08,13.2-11.49c0.33-2.3-0.03-9.05,0.03-11.52c-0.93-47.66-1.02-106.06-0.73-154.08 c0.82-7.66-3.87-14.6-11.86-15.12c-2.46,0.01-5.15,0.17-7.63,0.18c-20.57,0.31-41.07-1.61-61.61-0.91 c-4.93,0.35-10.39-0.43-14.6,2.7c-4.34,2.96-5.94,8.08-5.56,13.16c-0.06,15.38-0.1,46.26,0,61.63 c0.32,25.63,0.56,75.11,0.44,100.15c0,0-0.01,1.92-0.01,1.92c-0.13,6.81,5.87,12.84,12.7,12.8 C249.13,221.47,274.44,219.94,299.64,219.22L299.64,219.22z"></path> </g> <g> <g> <g> <path class="st1" d="M281.87,29.38h17.1c5.6,0,10.17,4.61,10.17,10.25v166.1c0,5.64-4.57,10.24-10.17,10.24 c-19.28,1.77-44.77,1.54-74.28,0c-5.59,0-10.17-4.6-10.17-10.24c-1.38-41.28,1.5-102.61,0-166.1 c0-5.64,4.58-10.25,10.17-10.25h17.1"></path> <path d="M281.87,29.28c0,0,13.45-0.21,13.45-0.21l3.36-0.05c6.01-0.34,11.34,5.12,11,11.11c0.13,12.02,0.25,34.82,0.29,47.08 c0.27,35.74-0.33,71.85-0.48,107.62c0,0-0.02,6.73-0.02,6.73l-0.01,3.36c0.17,3.43-1.28,6.99-4.05,9.12 c-1.75,1.47-4.25,2.24-6.4,2.26c-24.07,2.1-48.3,1.55-72.4,0.55c0,0-2.27-0.1-2.27-0.1c-5.83-0.03-10.88-5.36-10.72-11.16 c-1.27-41.17,0.41-85.49,0.52-126.7c0.03-12.06,0.07-24.12-0.09-36.19c-0.13-3-0.08-6.39,1.8-8.98 c2.19-3.34,6.23-5.03,10.12-4.67c4.02,0.07,11.73,0.15,15.84,0.22c0,0,0,0.2,0,0.2c-2.91,0.07-10.74,0.13-13.57,0.19 c-1.22,0.07-3.29-0.02-4.49,0.11c-4.38,0.47-8.07,4.13-8.59,8.48c-0.18,1.38-0.02,2.95-0.01,4.44 c1.62,48.25,0.01,96.54,0.01,144.78c0.02,6.03,0.12,12.05,0.28,18.09c-0.16,4.96,4.01,9.48,8.98,9.57c0,0,2.25,0.13,2.25,0.13 c24.08,1.28,48.23,2.35,72.28,0.36c4.4,0.05,8.55-3.15,9.58-7.44c0.47-1.76,0.27-4.76,0.3-6.62c0,0-0.02-6.73-0.02-6.73 c-0.37-48.94-0.81-98.99-0.25-147.98c0,0,0.06-6.73,0.06-6.73c0.26-4.36-2.57-8.54-6.72-9.91c-1.76-0.66-4.68-0.47-6.56-0.54 c0,0-13.45-0.21-13.45-0.21S281.87,29.28,281.87,29.28L281.87,29.28z"></path> </g> </g> <g> <path class="st1" d="M281.87,29.38c0.05,0.28,0.08,0.56,0.08,0.86v0.73c0,2.53-2.07,4.59-4.59,4.59h-31.04 c-2.53,0-4.6-2.07-4.6-4.59v-0.73c0-0.3,0.03-0.58,0.08-0.86"></path> <path d="M281.97,29.36c1.09,2.73-0.28,6.04-3.21,6.86c-3.59,0.71-7.24-0.25-10.85-0.34c-7.09,0.01-14.18,1.14-21.28,0.64 c-3.81,0.03-6.24-3.64-4.94-7.17c0,0,0.2,0.04,0.2,0.04c0.04,0.51,0.06,0.98,0.14,1.5c0.23,1.77,1.58,3.33,3.32,3.64 c1.4,0.17,2.89-0.07,4.31-0.04c6.09-0.18,12.16,0.79,18.24,0.74c3.25-0.17,6.53-0.71,9.8-0.56c2.71-0.15,4.1-2.78,4.06-5.27 C281.77,29.4,281.97,29.36,281.97,29.36L281.97,29.36z"></path> </g> </g> </g> <g> <g> <path class="st1" d="M326.2,117.37l-2,0.76l-13.48,5.12c-0.32,0.12-0.64,0.22-0.96,0.3c-4.46,1.16-9.21-1.22-10.89-5.62 l-0.2-0.52c-1.79-4.72,0.6-10.05,5.32-11.84l12.57-4.77l0.91-0.35l2-0.76c4.72-1.79,10.05,0.6,11.84,5.32l0.2,0.52 C333.32,110.25,330.92,115.58,326.2,117.37z"></path> <path d="M326.24,117.47c-4.49,1.66-8.78,3.83-13.17,5.75c-2.75,1.36-5.94,2.14-8.89,0.9c-8.18-3.13-8.6-15.63-0.37-19.05 c3.51-1.54,7.04-3.03,10.59-4.45c0.87-0.35,3.15-1.26,4-1.6c4.92-2.39,11.22-0.21,13.42,4.84 C334.36,109.06,331.48,115.65,326.24,117.47L326.24,117.47z M326.17,117.28c7.67-2.94,6.6-14.15-0.76-16.66 c-1.81-0.63-3.81-0.58-5.61,0.05c-5.15,1.87-10.38,3.75-15.6,5.41c-10.71,4.03-5.11,19.36,5.64,16.53 c0.33-0.09,0.98-0.31,1.3-0.43C316.12,120.49,321.27,119.19,326.17,117.28L326.17,117.28z"></path> </g> </g> <g> <g> <path class="st1" d="M320.09,136.32l-10.39,2.83c-3.16,0.86-6.45-1.02-7.31-4.18l-0.32-1.18c-0.86-3.16,1.02-6.45,4.18-7.31 l10.39-2.83c3.16-0.86,6.45,1.02,7.31,4.18l0.32,1.18C325.13,132.18,323.25,135.47,320.09,136.32z"></path> <path d="M320.11,136.42c-3.8,0.93-7.2,2.8-11.01,3.75c-2.9,0.54-5.96-1.34-6.9-4.08c-0.24-0.55-0.34-1.36-0.47-1.95 c-0.85-3.32,0.98-7.05,4.37-8.18c2.42-0.86,4.84-1.68,7.3-2.39l1.84-0.55c1.95-0.76,4.45-0.9,6.34,0.24 c1.96,1.08,3.19,3.11,3.44,5.3C325.88,132.02,323.3,135.69,320.11,136.42L320.11,136.42z M320.06,136.23 c3.07-0.81,4.6-4.42,3.33-7.22c-0.46-1.57-1.32-3.14-2.84-3.87c-2.06-1.23-4.48-0.24-6.66,0.25c-2.48,0.63-4.99,1.15-7.5,1.64 c-1.13,0.25-2.25,0.83-3,1.78c-1.19,1.4-1.52,3.41-0.86,5.13c0.45,1.68,1.54,3.27,3.15,3.96c2.2,1.16,4.54,0.18,6.85-0.17 C315.06,137.31,317.6,136.92,320.06,136.23L320.06,136.23z"></path> </g> </g> <g> <path class="st1" d="M229.35,285.49c0.02,1.04-31.09-6.37-33.58-7.03c-16.95-4.53-31.27-13.01-45.97-22.57 c-4.76-3.1-7.91-5.26-7.91-5.26c13.51-21.73,27.09-42.06,27.09-42.06c3.99,7.98,13.42,14.9,23.66,20.44 c17,9.21,36.19,14.59,36.19,14.59C228.83,260.18,229.35,285.49,229.35,285.49z"></path> <path d="M229.45,285.49c-0.01,0.11-0.14,0.18-0.24,0.19c-0.94,0.06-1.88-0.16-2.81-0.29c-1.89-0.31-6.82-1.29-8.78-1.68 c-6.94-1.48-16.56-3.24-23.35-4.94c-19.39-4.84-36.3-16.72-52.58-27.85c0,0-0.28-0.19-0.28-0.19s0.18-0.29,0.18-0.29 c8.74-13.68,17.94-28.74,26.73-42.31c0,0,0.73-1.12,0.73-1.12l0.64,1.21c5.71,10.17,16.59,16.3,26.69,21.56 c10.66,5.38,21.92,9.62,33.3,13.19C229.65,257.14,229.26,271.32,229.45,285.49L229.45,285.49z M229.25,285.5 c-0.16-13.97-0.87-27.93-1.28-41.9c0,0,0.63,0.82,0.63,0.82c-11.45-3.17-22.53-7.48-33.17-12.75 c-10.35-5.57-21.48-11.98-27.15-22.75c0,0,1.37,0.09,1.37,0.09c-9.4,13.76-18.8,27.55-27.45,41.8c0,0-0.1-0.48-0.1-0.48 c6.6,4.4,13.35,8.6,20.22,12.54c13.66,8.03,28.34,14.13,43.82,17.62C213.76,282.31,221.55,284.68,229.25,285.5L229.25,285.5z"></path> </g> <g> <g> <path class="st1" d="M325.88,97.45c-0.07,0.03-0.15,0.05-0.22,0.08l-13.63,3.5c-5.99,1.54-12.19-1.7-13.77-7.2L297.44,91 c-1.52-5.28,1.75-10.81,7.32-12.6l4.5-1.16l9.13-2.34c5.99-1.54,12.19,1.7,13.77,7.2l0.81,2.82 C334.47,90.14,331.31,95.59,325.88,97.45z"></path> <path d="M325.91,97.55c-5.13,1.24-10.04,3.23-15.15,4.53c-5.56,1.1-11.71-2.44-13.02-8.06c0,0-0.72-3.07-0.72-3.07 c-1.31-5.42,2.18-11.07,7.36-12.98c4.04-1.29,8.05-2.43,12.1-3.54c5.45-1.96,11.79-0.75,15.17,4.24 c1.27,1.85,1.68,4.05,2.18,6.21c0.27,1.11,0.27,2.27,0.14,3.37C333.43,92.67,329.97,96.17,325.91,97.55L325.91,97.55z M325.84,97.36c4.85-1.58,8.08-7.15,6.35-12.05c-0.83-2.72-1.75-5.78-4.21-7.49c-3.14-2.47-7.33-2.74-11.05-1.56 c-4.07,0.99-8.19,1.87-12.23,2.76c-4.88,1.29-8.56,6.72-6.9,11.72c0.6,1.65,1.23,4.2,2.39,5.55c2.74,3.5,7.53,4.91,11.82,4 C316.62,99.36,321.31,98.59,325.84,97.36L325.84,97.36z"></path> </g> </g> <g> <path class="st1" d="M210.49,168.34c0,0-2.97-25.95-5.72-31.01c-2.74-5.06-5.06-15.2-0.84-22.73c4.22-7.53,5.68-22.02,5.68-22.02 c1.64,16.54-3.29,28.82,0.17,32.07c0.13,0.12,0.37,0.06,0.7-0.15L210.49,168.34z"></path> <path d="M210.5,168.44c-0.21-0.29-0.23-0.94-0.32-1.29c-1.03-5.88-2.08-12.15-3.22-17.99c-0.73-3.56-1.37-7.13-2.58-10.48 c-2.88-5.53-4.15-11.93-3.03-18.1c0.5-3.3,2.39-6.15,3.7-9.11c2.37-6.01,3.41-12.53,4-18.93c0,0,0.47-5.32,0.47-5.32l0.65,5.32 c0.71,5.54,0.68,11.16,0.21,16.72c-0.23,2.77-0.55,5.53-0.74,8.25c-0.04,2.1-0.45,4.5,0.75,6.25c0,0,0.11,0.12,0.11,0.12 c-0.05-0.06-0.26-0.19-0.38-0.2c-0.27-0.07-0.45,0.08-0.21-0.07c0,0,1.63-1.28,1.63-1.28 C211.77,137.45,210.58,153.33,210.5,168.44L210.5,168.44z M210.48,168.24c-0.02-14.43-1.19-29.37-1.07-43.74 c0,0,1.64,0.9,1.64,0.9c-0.21,0.12-0.39,0.27-0.89,0.36c-0.52,0.11-1.07-0.19-1.37-0.61c-1.78-2.2-1.29-5.28-1.16-7.82 c0.26-2.8,0.64-5.53,0.92-8.27c0.59-5.46,0.87-10.95,0.49-16.43c0,0,1.12,0,1.12,0c-1.21,8.04-2.8,16.24-6.55,23.5 c-2.34,5.96-1.37,12.72,0.92,18.54c0.61,1.53,1.5,2.94,1.92,4.55c2.4,8.73,3.17,17.69,3.98,26.66c0,0,0.08,1.22,0.08,1.22 s0.04,0.61,0.04,0.61l0.02,0.31C210.59,168.09,210.51,168.11,210.48,168.24L210.48,168.24z"></path> </g> <g> <path class="st1" d="M173.64,126.07h103.25c3.58,0,6.49-2.91,6.49-6.49V78.23c0-3.58-2.91-6.49-6.49-6.49H173.64 c-3.58,0-6.49,2.91-6.49,6.49v41.35C167.15,123.16,170.06,126.07,173.64,126.07z"></path> <path d="M173.64,125.97c27.5-0.02,54.99-1.1,82.49-0.73c0,0,20.62,0.27,20.62,0.27c1.6,0.05,3.17-0.54,4.33-1.64 c1.16-1.09,1.86-2.66,1.88-4.28c0,0,0.07-10.31,0.07-10.31c0.07-6.87,0.03-13.75-0.01-20.62c-0.01-3.44-0.03-6.87-0.08-10.31 c0-1.62-0.64-3.2-1.78-4.32c-1.12-1.13-2.7-1.77-4.28-1.74c-13.75,0.19-27.5,0.33-41.25,0.39c-20.62,0.12-41.25,0.16-61.87,0.01 c-3.06-0.15-5.81,2.46-5.79,5.53c0,0-0.18,10.31-0.18,10.31c-0.13,6.82-0.46,24.33-0.51,30.93 C167.15,122.91,170.18,126.03,173.64,125.97L173.64,125.97z M173.64,126.17c-3.59,0.09-6.74-3.12-6.64-6.71 c0,0-0.13-10.31-0.13-10.31s-0.38-20.62-0.38-20.62c-0.06-3.44-0.15-6.87-0.17-10.31c-0.03-1.94,0.77-3.89,2.16-5.26 c1.37-1.39,3.36-2.18,5.29-2.16c6.87-0.09,13.75-0.05,20.62-0.08c27.5-0.07,55,0.11,82.49,0.48c3.79-0.05,7.1,3.39,6.92,7.16 c-0.05,3.44-0.07,6.87-0.08,10.31c-0.05,9.93-0.04,20.95,0.06,30.94c0.13,3.78-3.26,7.13-7.03,7.03 C242.58,127.47,207.77,126.37,173.64,126.17L173.64,126.17z"></path> </g> <g> <g> <path class="st1" d="M277.62,64.86H237.2c-3,0-5.43-2.43-5.43-5.43v-7.66c0-3,2.43-5.43,5.43-5.43h40.41 c3,0,5.43,2.43,5.43,5.43v7.66C283.05,62.43,280.61,64.86,277.62,64.86z"></path> <path d="M277.62,64.96c-10.85,0.01-21.7,1.12-32.56,0.73c-2.73-0.09-5.4-0.17-8.17-0.29c-3.04-0.21-5.49-2.96-5.43-5.87 c0.03-2.73,0.01-5.41,0-8.17c0.12-2.97,2.74-5.54,5.75-5.57c5.43-0.19,10.85-0.33,16.28-0.39c5.43-0.07,10.85-0.15,16.28-0.13 c0,0,4.07,0.04,4.07,0.04c2.8,0.04,6.29-0.35,8.29,2.1c1.06,1.15,1.63,2.73,1.57,4.25c0,0-0.4,8.17-0.4,8.17 C283.03,62.71,280.42,65.03,277.62,64.96L277.62,64.96z M277.62,64.76c2.68,0.03,5.13-2.28,5.13-4.96 c-0.09-2.67-0.23-5.43-0.37-8.11c-0.13-2.36-2.2-4.34-4.53-4.37c-7.89,0.14-16.53,0.09-24.37-0.04 c-5.43-0.06-10.85-0.2-16.28-0.39c-1.22-0.04-2.46,0.4-3.4,1.23c-0.95,0.82-1.57,2.02-1.67,3.29c-0.08,2.66-0.06,5.42-0.03,8.11 c0.02,2.57,2.3,4.8,4.84,4.77c0,0,8.11-0.26,8.11-0.26C255.91,63.64,266.76,64.75,277.62,64.76L277.62,64.76z"></path> </g> </g> <g> <g> <path class="st1" d="M275.84,200.66h-46.59c-3.59,0-6.5-2.91-6.5-6.5v-9.85c0-3.59,2.91-6.5,6.5-6.5h46.59 c3.59,0,6.5,2.91,6.5,6.5v9.85C282.35,197.75,279.43,200.66,275.84,200.66z"></path> <path d="M275.84,200.76c-12.81,0.01-25.62,1.12-38.43,0.73c0,0-4.8-0.13-4.8-0.13c-1.46-0.12-3.44,0.06-4.91-0.32 c-3.44-0.8-5.63-4.32-5.27-7.72c0.06-3.24-0.04-6.38,0-9.64c0.26-3.46,3.31-6.39,6.82-6.42c6.4-0.19,12.81-0.33,19.21-0.39 c9.17-0.11,18.48-0.21,27.66-0.03c4.23,0.09,7.49,4.24,6.88,8.32c-0.15,3.21-0.23,6.38-0.41,9.63 C282.21,198.12,279.19,200.82,275.84,200.76L275.84,200.76z M275.84,200.56c3.18,0.03,6.09-2.65,6.19-5.83 c-0.06-3.15-0.23-6.39-0.35-9.58c0.19-3.9-2.96-6.81-6.8-6.34c-8.76,0.12-17.67,0.05-26.42-0.06c-6.4-0.06-12.81-0.2-19.21-0.39 c-3.02-0.12-5.88,2.33-6.12,5.38c-0.09,3.14-0.08,6.39-0.06,9.57c-0.27,3.07,1.79,6.12,4.87,6.64c1.19,0.25,3.38-0.01,4.67,0.01 c0,0,4.8-0.13,4.8-0.13C250.23,199.44,263.04,200.55,275.84,200.56L275.84,200.56z"></path> </g> </g> <g> <g> <path class="st1" d="M293.95,168.34h-44.02c-4.3,0-7.79-3.49-7.79-7.79v-17.22c0-4.3,3.49-7.79,7.79-7.79h44.02 c4.3,0,7.79,3.49,7.79,7.79v17.22C301.74,164.85,298.25,168.34,293.95,168.34z"></path> <path d="M293.95,168.44c-14.28,0.01-28.56,1.12-42.85,0.73c-4.96,0.43-9.64-3.53-9.44-8.61c0,0,0.07-2.68,0.07-2.68 c0.11-3.16,0.09-7.6,0.1-10.71c0,0-0.02-2.68-0.02-2.68c-0.57-4.76,3.18-9.5,8.12-9.5c14.28-0.38,28.57-0.52,42.85-0.52 c5.15-0.5,10.03,3.55,9.87,8.85c-0.04,1.68-0.2,6.29-0.26,8.03c-0.07,1.77-0.23,6.32-0.29,8.03 C302.48,164.04,298.75,168.56,293.95,168.44L293.95,168.44z M293.95,168.24c4.67,0.02,8.11-4.31,7.42-8.85 c-0.05-1.69-0.22-6.29-0.29-8.03c-0.07-1.76-0.22-6.33-0.26-8.03c-0.05-4.21-3.95-7.23-8.04-6.72 c-14.28,0-28.57-0.14-42.85-0.52c-4.52-0.15-7.94,3.97-7.46,8.4c0,0-0.02,2.68-0.02,2.68c-0.04,4.12,0.07,9.25,0.18,13.39 c0.18,4.54,4.08,7.47,8.47,6.95C265.39,167.12,279.67,168.23,293.95,168.24L293.95,168.24z"></path> </g> </g> <g> <path class="st1" d="M418.39,332.05h-80.3c-3.85-2.58-23.85-16.22-32.12-26.39c-1.75-2.16-8.17-20.73-13.1-35.8 c-3.08-9.42-5.58-17.48-6-19.33c-0.15-0.64-0.24-1.92-0.3-3.65v-0.02c-0.21-6.17,0.08-18.06,0.37-27.5l0-0.04l0.01-0.12 c0.01-0.42,0.03-0.82,0.04-1.23v-0.01c0-0.04,0-0.08,0-0.12c0.05-1.64,0.11-3.19,0.16-4.59c0.12-3.52,0.23-6.16,0.27-7.19 l0.02-0.48c0,0,0,0,0,0c0.13-0.07,3.99-2.13,9.15,1.59c1.25,0.9,2.4,3.07,3.45,5.9c0.67,1.81,1.3,3.89,1.89,6.07 c2.25,8.42,3.87,18.48,4.74,21.18c1.39,4.35,17.81,23.5,18.84,24.7c0.02,0.02,0.03,0.04,0.05,0.06v-30.24l-12.39-33.16 l-5.09-13.61l-2.56-6.84c0,0-3.92-6.44-7.21-14.18c-1.44-3.39-2.76-7.03-3.58-10.49c-0.2-0.82-0.36-1.64-0.49-2.44c0,0,0,0,0,0 c-0.48-2.92-0.52-5.64,0.16-7.84c1.2-3.93,3.9-4.67,5.98-4.59c0.21,0.01,0.42,0.03,0.62,0.05c0.2,0.02,0.4,0.06,0.6,0.12 c0.36,0.1,0.71,0.24,1.03,0.43c0,0,0,0,0.01,0c0.53,0.31,0.99,0.74,1.35,1.26c0,0,1.75,2.29,4.1,5.36 c1.55,2.02,3.35,4.39,5.09,6.67c3.09,4.06,5.96,7.85,6.75,8.96c4.26,6,15.74,25.56,15.74,25.56l13.44,0.56 c2.13,0.09,4.16,0.94,5.71,2.39c4.78,4.46,15.08,14.12,16.35,15.56c0,0.47,8.01,4.32,14.19,7.75c4.42,1.87,12.83,8.49,12.83,8.49 c1.74,1.54,3.07,3.07,3.74,4.53c2.88,6.27,10.7,60.81,14.43,87.77C417.55,325.78,418.33,331.6,418.39,332.05z"></path> <path d="M418.47,332.11c-20.17,0.18-60.43,0.6-80.6,0.69c-10.11-6.86-20.04-14.01-28.85-22.55c-1.35-1.42-2.7-2.74-3.89-4.31 c-2.11-3.7-3.35-7.78-4.88-11.71c-2.06-5.7-3.99-11.43-5.9-17.17c-1.9-5.74-3.77-11.5-5.57-17.27c-0.89-2.9-1.78-5.77-2.57-8.74 c-0.6-3.07-0.36-6.13-0.42-9.23c0.12-12.11,0.64-24.2,1.18-36.28c0,0,0.46-0.45,0.46-0.45c-0.1,0-0.24,0.05-0.31,0.13 c1.59-0.86,3.39-0.86,5.04-0.55c5.83,1.26,7.4,5.3,8.92,10.46c1.98,6.02,3.17,12.27,4.42,18.47c0.71,3.03,0.87,6.28,2.66,8.91 c5.26,7.85,11.52,15.03,17.61,22.25c0,0,0.02,0.02,0.02,0.02s0.04,0.05,0.04,0.05s-0.64,0.23-0.64,0.23l-0.14-30.24 c0.22,0.91-20.32-53.55-20.29-53.34c-4.59-7.59-19.49-35.01-6.93-40.45c1.75-0.53,3.62-0.54,5.27,0.37c0,0-0.48-0.13-0.48-0.13 c0.23-0.01,0.53,0.12,0.69,0.3c0,0-0.21-0.16-0.21-0.16c1.1,0.59,1.98,1.98,2.73,2.93c1.33,1.71,5.25,6.84,6.64,8.65 c2.94,3.87,5.9,7.72,8.8,11.66c5.45,8.12,10.3,16.49,15.28,24.88c0,0-0.86-0.51-0.86-0.51l10.58,0.45 c1.64,0.15,3.94-0.01,5.52,0.6c1.84,0.55,3.4,1.81,4.73,3.15c2.53,2.39,9.12,8.57,11.55,10.91c1.28,1.25,2.53,2.4,3.83,3.78 c0,0,0.25,0.66,0.25,0.66c0-0.22-0.09-0.48-0.21-0.59c-0.06-0.05,0,0,0,0c0.49,0.34,0.89,0.55,1.37,0.83 c4.04,2.21,8.48,4.42,12.49,6.68c2,0.89,4.78,2.66,6.79,4.08c3.19,2.35,6.73,4.49,9.14,7.78c2.22,3.39,2.46,7.72,3.38,11.56 c1.96,10.3,3.5,20.63,5.03,30.98C413.14,289.95,415.97,311.91,418.47,332.11L418.47,332.11z M418.32,331.98 c-3.73-24.27-7.87-53.37-12.01-77.36c-0.88-5.15-1.77-10.29-2.8-15.4c-0.91-3.66-1.15-7.65-3.18-10.86 c-2.29-3.05-5.69-5.04-8.77-7.28c-4.41-3.09-9.12-5.17-13.81-7.69c-1.26-0.68-4.21-2.16-5.4-2.84c-0.61-0.35-1.33-0.72-1.84-1.19 c-0.17-0.19-0.36-0.47-0.35-0.8c0,0,0.25,0.66,0.25,0.66c-1.13-1.19-2.46-2.44-3.72-3.65c-2.4-2.3-9.04-8.52-11.56-10.87 c-1.14-1.11-2.41-2.24-3.97-2.68c-1.28-0.53-3.58-0.37-4.97-0.49c0,0-10.58-0.43-10.58-0.43s-0.57-0.02-0.57-0.02l-0.29-0.49 c-2.46-4.17-4.95-8.34-7.47-12.48c-2.53-4.13-5.04-8.3-7.72-12.28c-4.11-5.66-8.84-11.81-13.09-17.43c0,0-2.21-2.91-2.21-2.91 s-1.11-1.45-1.11-1.45c-0.33-0.51-0.77-0.79-1.23-1.12c0.15,0.17,0.45,0.3,0.68,0.29c0,0-0.48-0.13-0.48-0.13 c-2.29-1.17-5.4-0.18-6.41,2.33c-3.78,9.11,5.69,26.87,10.48,35.37c0.14,0.34,19.81,53.67,19.86,54.04c0,0-0.14,30.24-0.14,30.24 s0,1.01,0,1.01c-4.22-5.05-8.62-10.23-12.7-15.52c-2.36-3.18-4.98-6.25-6.7-9.85c-1.57-5.32-2.27-10.85-3.62-16.22 c-0.82-3.82-2.03-7.62-3.22-11.35c-0.86-2.05-1.64-4.46-3.51-5.79c-1.27-0.87-2.67-1.53-4.15-1.81 c-1.59-0.38-3.53,0.04-4.55,0.51c0,0,0.46-0.45,0.46-0.45c-0.38,12.08-0.73,24.17-0.69,36.24c0.08,2.88-0.06,6.09,0.49,8.85 c2.53,8.65,5.43,17.28,8.28,25.85c1.93,5.72,3.89,11.44,5.95,17.11c1.44,3.8,2.67,7.76,4.6,11.32 c4.96,6.06,11.18,11.01,17.33,15.88c4.77,3.68,9.66,7.23,14.65,10.6C355.98,331.14,399.1,331.9,418.32,331.98L418.32,331.98z"></path> </g> <g> <path class="st1" d="M357,210.47c0.73-2.2-22.89-21.24-22.89-21.24"></path> <path d="M356.91,210.44c-0.36-0.8-2-1.93-2.67-2.59c-2.07-1.61-3.61-3.76-5.35-5.7c-1.85-1.87-4.29-3.04-6.32-4.67 c-3.2-2.35-6.06-4.98-8.52-8.16c0,0,0.13-0.16,0.13-0.16c2.44,1.15,4.61,2.64,6.69,4.25c3.16,2.39,5.49,5.68,8.46,8.26 c3,2.04,6.16,4.25,7.66,7.71c0.1,0.33,0.28,0.69,0.11,1.12C357.1,210.5,356.91,210.44,356.91,210.44L356.91,210.44z"></path> </g> <g> <path class="st1" d="M371.31,208.75c1.32,1.51,10.59,12,14.16,12.79"></path> <path d="M371.39,208.68c1.52,0.72,2.77,1.74,3.76,3.05c0.45,0.67,0.77,1.47,1.28,2.08c1,1.26,2.64,1.87,3.84,2.89 c2,1.36,3.4,3.11,5.22,4.72c0,0-0.04,0.2-0.04,0.2c-0.89,0.1-1.79-0.18-2.55-0.53c-1.54-0.66-2.83-1.75-3.91-3 c-1.14-1.15-1.78-2.78-3.02-3.83c-1.3-0.95-2.8-1.73-3.63-3.21c-0.44-0.69-0.86-1.39-1.1-2.25L371.39,208.68L371.39,208.68z"></path> </g> <g> <path class="st1" d="M211.82,96.85c0,3.87-1.3,7.43-3.5,10.27c-0.73,0.94-1.55,1.81-2.46,2.58c-2.93,2.49-6.73,3.99-10.88,3.99 c-3.77,0-7.25-1.24-10.06-3.33c-1.24-0.92-2.34-2.01-3.29-3.23c-2.19-2.84-3.5-6.41-3.5-10.27c0-9.3,7.54-16.84,16.84-16.84 C204.28,80.01,211.82,87.55,211.82,96.85z"></path> <path d="M211.92,96.85c0.15,12.41-11.88,21.55-23.59,16.08c-13.78-6.51-14.68-26.28-0.2-32.6 C199.96,75.31,212.12,84.35,211.92,96.85L211.92,96.85z M211.72,96.85c-0.12-14.01-18.17-20.92-27.99-11.24 c-10.44,10.24-3.69,27.8,11.25,27.25C203.48,112.75,211.86,105.72,211.72,96.85L211.72,96.85z"></path> </g> <g> <path d="M201.75,104.81c-0.05-0.05-0.09-0.1-0.13-0.14c-0.19-0.15-0.39-0.24-1.17-0.38c-0.4-0.07-0.95-0.14-1.73-0.25 c0,0-0.17-0.02-0.26-0.03c-0.06-0.01-0.12-0.01-0.2-0.02c-0.22-0.12-0.28-1.04-0.28-2.02c0-0.07,0-0.15,0-0.22 c0-0.37,0.02-0.73,0.03-1.06c0-0.02,0-0.04,0-0.06c0.48,0.04,0.8,0.04,0.8,0.04c0.9-0.07,1.46-2.48,1.66-4.42 c0,0,0.44-1.07,0.44-2.22c0-0.65-0.14-1.32-0.58-1.86c-0.23-0.27-0.44-0.45-0.63-0.57c-0.06-0.06-0.11-0.11-0.17-0.16 c-0.83-0.93-4.23-4.4-6.45-2.39c-0.06-0.2-0.78-2.46-4.29-1.72c0.22-0.02,1.78-0.17,2.23,0.46c-0.06-0.03-1.42-0.63-2.28-0.1 c-0.4,0.24-0.64,0.74-0.78,1.27c0,0,0,0.01,0,0.01c0,0,0,0.01,0,0.01v0c0,0.01,0,0.01,0,0.02c-0.02,0.07-0.03,0.14-0.05,0.21 c0,0.01-0.01,0.02-0.01,0.03c0,0,0,0.01,0,0.01c0,0,0,0,0,0c-0.1,0.54-0.1,1.07-0.04,1.33c0.13,0.55,1.1,2.19,1.74,2.19 c0.24,0,0.5-0.08,0.73-0.18c-0.1,0.29-0.19,0.61-0.26,0.95c-0.68,3.21,1.45,5.65,2.56,5.04c0.71-0.39,1.24,0.85,1.24,0.85l0-0.01 c-0.1,2.35-0.75,3.88-1.23,4.26c-0.17,0.02-0.54,0.06-1,0.14v0c0,0-1.63,0.18-2.87,0.72c-0.01,0-0.02,0.01-0.03,0.01 c-0.28,0.12-0.52,0.25-0.7,0.39c0,0,0,0.01-0.01,0.01v0c-0.09,0.07-0.17,0.15-0.23,0.24c-0.03,0.03-0.05,0.07-0.07,0.11 c-0.41,0.79-0.83,1.97-1.23,3.36c2.38,1.78,5.33,2.83,8.53,2.83c3.52,0,6.74-1.27,9.23-3.38 C203.36,106.23,202.32,105.24,201.75,104.81z"></path> <g> <path d="M201.72,104.84c0,0-0.15-0.15-0.13-0.14c-1-0.53-2.26-0.44-3.35-0.63c-0.27-0.27-0.22-0.57-0.28-0.86 c-0.09-0.9-0.07-1.81-0.07-2.71c0.13,0.01,0.71,0.01,0.85,0.02c0.21,0.01,0.34-0.11,0.48-0.28c0.74-1.17,0.85-2.68,1-4.04 c0.39-1.1,0.66-2.44,0.09-3.51c-0.26-0.48-0.63-0.66-0.99-1c-1.46-1.5-3.9-4.01-6.05-2.44c0,0-0.29,0.25-0.29,0.25 c-0.12-0.48-0.32-0.98-0.7-1.33c-0.89-0.87-2.27-0.89-3.43-0.67c0,0-0.05-0.29-0.05-0.29c1-0.07,2.07-0.09,2.64,0.92 c-1.8-0.84-3.07-0.76-3.4,1.14c-0.19,0.84-0.06,1.6,0.45,2.31c0.44,0.66,0.95,1.38,1.78,0.88c0,0,0.34-0.15,0.34-0.15l-0.1,0.37 c-0.45,1.41-0.51,2.98,0.17,4.32c0.38,0.69,1.02,1.6,1.8,1.37c0.71-0.44,1.46,0.41,1.69,0.98c0,0-0.55-0.05-0.55-0.05 s0-0.01,0-0.01l0.62-0.96l-0.04,1.15c-0.12,1.58-0.2,3.28-1.32,4.53c0,0-0.06,0.06-0.06,0.06s-0.12,0.02-0.12,0.02 c-0.28,0.04-1.13,0.17-1.41,0.2c0,0,0-0.42,0-0.42c0,0,0.41,0.36,0.41,0.36c-0.94,0.13-1.91,0.34-2.75,0.71 c-0.21,0.09-0.47,0.21-0.64,0.36c0,0,0.1-0.12,0.1-0.12c-0.04,0.11-0.23,0.22-0.35,0.21c0,0,0.39-0.4,0.39-0.39 c0,0,0,0.12,0,0.12l-0.15,0.19c-0.05,0.07-0.12,0.11-0.17,0.18c-0.53,1.01-0.9,2.21-1.23,3.32c0,0-0.14-0.42-0.14-0.42 c3.75,2.83,8.92,3.58,13.36,2.01c1.48-0.53,2.89-1.31,4.12-2.32c0,0-0.02,0.09-0.02,0.09 C203.61,106.91,202.83,105.72,201.72,104.84L201.72,104.84z M201.77,104.79c1.14,0.87,1.97,2.09,2.6,3.37 c-2.41,2.15-5.58,3.51-8.87,3.67c-3.37,0.19-6.77-0.91-9.44-2.98c0.33-1.14,0.67-2.3,1.17-3.38c0.13-0.3,0.29-0.54,0.57-0.78 c0,0-0.15,0.31-0.15,0.31c0,0,0.39-0.39,0.39-0.39c-0.11-0.01-0.3,0.1-0.34,0.2l0.1-0.12c1.21-0.82,2.74-1.04,4.21-1.23 c0,0,0,0.42,0,0.42c0,0-0.42-0.36-0.42-0.36l1.02-0.13c0,0-0.18,0.08-0.18,0.08c0.87-1.04,1.01-2.66,1.14-4 c0,0,0.6,0.18,0.58,0.19c0,0-0.32,0.47-0.32,0.47c-0.17-0.39-0.43-1.07-0.79-1.25c-0.26-0.11-0.63,0.25-1.05,0.08 c-2.44-1.03-2.59-4.24-1.81-6.39c0,0,0.24,0.22,0.24,0.22c-0.2,0.08-0.42,0.15-0.65,0.18c-0.22,0.05-0.52-0.08-0.69-0.23 c-0.65-0.61-1.11-1.32-1.35-2.18c-0.09-0.52,0.07-1.35,0.13-1.55c0.32-1.65,1.78-1.93,3.24-1.3c0,0-0.16,0.19-0.16,0.19 c-0.48-0.52-1.43-0.43-2.1-0.39c0,0-0.05-0.29-0.05-0.29c1.7-0.44,3.92-0.1,4.56,1.79c0,0-0.4-0.11-0.4-0.11 c2.3-2,5.37,0.75,6.84,2.32c0,0,0.19,0.17,0.19,0.17s-0.07-0.05-0.07-0.05c0.44,0.28,0.74,0.62,0.98,1.05 c0.66,1.15,0.27,3.08-0.11,3.91c-0.24,1.43-0.41,2.95-1.29,4.17c-0.15,0.19-0.45,0.4-0.73,0.37l-0.73-0.05 c0,0,0.15-0.13,0.15-0.13c0.01,1.06-0.28,2.34,0.14,3.3c0.97,0.16,2.37,0.15,3.34,0.7 C201.65,104.64,201.77,104.78,201.77,104.79L201.77,104.79z"></path> </g> </g> <g> <path d="M242.49,88.37h-19.13c-0.66,0-1.21-0.54-1.21-1.21v-0.58c0-0.66,0.54-1.21,1.21-1.21h19.13c0.66,0,1.21,0.54,1.21,1.21 v0.58C243.69,87.83,243.15,88.37,242.49,88.37z"></path> <g> <path d="M242.49,88.41c-5.87,0.2-11.74,0.4-17.62,0.09c-1.3-0.01-2.94,0.23-2.86-1.6c-0.14-0.81,0.44-1.72,1.35-1.72 c5.87-0.18,11.75-0.31,17.62-0.04c0.89,0.09,2.37-0.16,2.72,0.96C243.96,87.05,243.72,88.41,242.49,88.41L242.49,88.41z M242.49,88.33c1.12-0.02,1.33-1.31,1.02-2.16c-0.42-0.94-1.58-0.52-2.53-0.54c-1.96,0.1-3.92,0.14-5.87,0.14 c-3.92,0.02-7.83-0.05-11.75-0.18c-1.03-0.04-1.24,1.2-0.99,1.98c0.35,0.96,1.58,0.63,2.51,0.67 C230.74,87.93,236.61,88.13,242.49,88.33L242.49,88.33z"></path> </g> </g> <g> <g> <path d="M242.72,99.11h-19.59c-0.54,0-0.97-0.44-0.97-0.97l0,0c0-0.54,0.44-0.97,0.97-0.97h19.59c0.54,0,0.97,0.44,0.97,0.97 l0,0C243.69,98.67,243.25,99.11,242.72,99.11z"></path> <path d="M242.72,99.14c-5.66,0.2-11.32,0.4-16.99,0.09c-1.19-0.22-3.73,0.68-3.73-1.23c0.04-0.56,0.54-1.04,1.13-1.05 c6.62-0.21,13.23-0.36,19.84,0.13C244.14,97.41,243.94,99.15,242.72,99.14L242.72,99.14z M242.72,99.07 c0.46,0,0.87-0.39,0.9-0.83c0.05-0.44-0.27-0.89-0.7-0.95c-0.89,0-1.87,0.08-2.81,0.12c-5.66,0.27-11.33,0.14-16.99-0.04 c-0.37-0.02-0.75,0.28-0.81,0.67c-0.07,0.39,0.21,0.82,0.61,0.91c0.88,0.06,1.87,0.04,2.8,0.03 C231.4,98.67,237.06,98.87,242.72,99.07L242.72,99.07z"></path> </g> <g> <path d="M234.04,103.72H222.9c-0.41,0-0.75-0.34-0.75-0.75v-0.46c0-0.41,0.34-0.75,0.75-0.75h11.15c0.41,0,0.75,0.34,0.75,0.75 v0.46C234.79,103.38,234.45,103.72,234.04,103.72z"></path> <path d="M234.04,103.75c-3.91,0.26-7.42,0.36-11.36,0.05c-0.72-0.16-0.77-1.05-0.63-1.64c0.12-0.33,0.46-0.59,0.83-0.6 c2.32-0.14,4.65-0.19,6.97-0.19c1.16,0.02,2.32,0.04,3.49,0.15c0.58,0.03,1.47,0.07,1.53,0.86 C234.91,102.97,234.81,103.76,234.04,103.75L234.04,103.75z M234.04,103.68c0.68-0.01,0.75-0.74,0.63-1.26 c-0.06-0.25-0.27-0.43-0.49-0.46c-1.4,0.1-2.9,0.22-4.31,0.21c-2.32,0-4.65-0.05-6.97-0.19c-0.59-0.03-0.65,0.62-0.61,1.09 c0.03,0.24,0.22,0.45,0.45,0.51c1.42,0.07,2.9-0.13,4.33-0.18C229.4,103.25,231.72,103.68,234.04,103.68L234.04,103.68z"></path> </g> <g> <path d="M256.77,103.72h-18.01c-0.51,0-0.94-0.42-0.94-0.94v-0.08c0-0.51,0.42-0.94,0.94-0.94h18.01c0.51,0,0.94,0.42,0.94,0.94 v0.08C257.7,103.29,257.28,103.72,256.77,103.72z"></path> <path d="M256.77,103.75c-3.5,0-7.01,0.43-10.51,0.27c-2.41-0.08-4.82-0.23-7.23-0.19c-0.21,0-0.46,0.03-0.7-0.08 c-1.07-0.44-0.76-2.19,0.43-2.19c3.5-0.14,7.01-0.19,10.51-0.19c2.17,0.01,4.4,0.09,6.57,0.23c0.4,0.05,0.96-0.03,1.35,0.16 C258.14,102.2,257.83,103.78,256.77,103.75L256.77,103.75z M256.77,103.68c0.96,0.01,1.21-1.42,0.33-1.74 c-0.3-0.11-0.92,0-1.26,0c-5.69,0.37-11.39,0.23-17.08,0.03c-0.83-0.06-1.09,1.24-0.32,1.54c2.57,0.26,5.23-0.08,7.82-0.11 C249.76,103.25,253.26,103.68,256.77,103.68L256.77,103.68z"></path> </g> <g> <path d="M273.6,99.11H247.9c-0.54,0-0.97-0.44-0.97-0.97l0,0c0-0.54,0.44-0.97,0.97-0.97h25.69c0.54,0,0.97,0.44,0.97,0.97l0,0 C274.57,98.67,274.13,99.11,273.6,99.11z"></path> <path d="M273.6,99.14c-4.79,0.02-9.58,0.4-14.37,0.27c-3.59-0.09-7.19-0.25-10.78-0.18c-0.61,0.06-1.43-0.05-1.63-0.8 c-0.24-0.68,0.34-1.5,1.09-1.49c8.36-0.23,16.79-0.31,25.16,0.1c0.58-0.03,1.38,0.09,1.54,0.8 C274.79,98.49,274.24,99.18,273.6,99.14L273.6,99.14z M273.6,99.07c0.6,0.01,1.06-0.64,0.87-1.18 c-0.19-0.64-0.83-0.69-1.41-0.62c-8.36,0.41-16.79,0.33-25.16,0.1c-0.49-0.03-0.93,0.49-0.78,0.99 c0.16,0.61,0.75,0.65,1.32,0.62c1.2,0.01,2.4,0.03,3.59,0C259.22,98.67,266.41,98.86,273.6,99.07L273.6,99.07z"></path> </g> <g> <path d="M242.72,108.32h-19.59c-0.54,0-0.97-0.44-0.97-0.97l0,0c0-0.54,0.44-0.97,0.97-0.97h19.59c0.54,0,0.97,0.44,0.97,0.97 l0,0C243.69,107.89,243.25,108.32,242.72,108.32z"></path> <path d="M242.72,108.36c-5.66,0.2-11.32,0.4-16.99,0.09c-1.19-0.22-3.73,0.68-3.73-1.23c0.04-0.56,0.54-1.04,1.13-1.05 c6.62-0.21,13.23-0.36,19.84,0.13C244.14,106.63,243.94,108.37,242.72,108.36L242.72,108.36z M242.72,108.29 c0.46,0,0.87-0.39,0.9-0.83c0.05-0.44-0.27-0.89-0.7-0.95c-0.89,0-1.87,0.08-2.81,0.12c-5.66,0.27-11.33,0.14-16.99-0.04 c-0.37-0.02-0.75,0.28-0.81,0.67c-0.07,0.39,0.21,0.82,0.61,0.91c0.88,0.06,1.87,0.04,2.8,0.03 C231.4,107.88,237.06,108.08,242.72,108.29L242.72,108.29z"></path> </g> <g> <path d="M273.6,108.32H247.9c-0.54,0-0.97-0.44-0.97-0.97l0,0c0-0.54,0.44-0.97,0.97-0.97h25.69c0.54,0,0.97,0.44,0.97,0.97l0,0 C274.57,107.89,274.13,108.32,273.6,108.32z"></path> <path d="M273.6,108.36c-4.79,0.02-9.58,0.4-14.37,0.27c-3.59-0.09-7.19-0.25-10.78-0.18c-0.61,0.06-1.43-0.05-1.63-0.8 c-0.24-0.68,0.34-1.5,1.09-1.49c8.36-0.23,16.79-0.31,25.16,0.1c0.58-0.03,1.38,0.09,1.54,0.79 C274.79,107.7,274.24,108.39,273.6,108.36L273.6,108.36z M273.6,108.29c0.6,0.01,1.06-0.64,0.87-1.18 c-0.19-0.64-0.83-0.69-1.41-0.62c-8.36,0.41-16.79,0.33-25.16,0.1c-0.49-0.03-0.93,0.49-0.78,0.99 c0.16,0.61,0.75,0.65,1.32,0.62c1.2,0.01,2.4,0.03,3.59,0C259.22,107.89,266.41,108.08,273.6,108.29L273.6,108.29z"></path> </g> </g> <g> <path d="M261.13,88.37h-13.74c-0.57,0-1.03-0.46-1.03-1.03v-0.92c0-0.57,0.46-1.03,1.03-1.03h13.74c0.57,0,1.03,0.46,1.03,1.03 v0.92C262.17,87.9,261.7,88.37,261.13,88.37z"></path> <g> <path d="M261.13,88.41c-4.48,0.21-8.94,0.41-13.43,0.09c-0.37,0.02-0.84-0.05-1.12-0.35c-0.32-0.28-0.38-0.77-0.36-1.12 l-0.01-0.56c-0.06-0.66,0.49-1.29,1.17-1.3c2.98-0.14,5.97-0.19,8.95-0.19c1.7,0.04,3.39,0.01,5.08,0.23 c0.66,0.16,0.98,0.95,0.84,1.51c-0.05,0.36,0.04,0.77-0.18,1.13C261.9,88.19,261.52,88.41,261.13,88.41L261.13,88.41z M261.13,88.33c0.9-0.04,1.05-0.86,0.93-1.61c0.04-0.79-0.46-1.24-1.24-1.09c-4.47,0.28-8.95,0.14-13.43-0.04 c-0.3-0.02-0.61,0.15-0.77,0.42c-0.17,0.26-0.11,0.65-0.13,1.02c-0.03,0.39,0.01,0.7,0.26,0.95c0.25,0.26,0.57,0.28,0.96,0.25 c1.49-0.01,2.98-0.13,4.48-0.18C255.17,87.9,258.15,88.33,261.13,88.33L261.13,88.33z"></path> </g> </g> <g> <g> <path d="M243.81,184.3h-13.6c-0.47,0-0.86-0.39-0.86-0.86v-0.41c0-0.47,0.39-0.86,0.86-0.86h13.6c0.47,0,0.86,0.39,0.86,0.86 v0.41C244.67,183.91,244.28,184.3,243.81,184.3z"></path> <path d="M243.81,184.34c-2.78,0-5.57,0.43-8.35,0.27c-1.73-0.07-3.49-0.21-5.22-0.2c-0.39,0.02-0.79-0.22-0.95-0.6 c-0.26-0.75-0.05-1.81,0.91-1.85c2.78-0.14,5.57-0.19,8.35-0.19c1.39,0.02,2.78,0.04,4.18,0.15c0.63,0.06,1.75-0.06,1.96,0.74 C244.89,183.35,244.67,184.35,243.81,184.34L243.81,184.34z M243.81,184.26c0.79-0.01,0.93-0.93,0.7-1.51 c-0.14-0.28-0.44-0.43-0.73-0.4c-1.73,0.14-3.49,0.22-5.22,0.23c-2.78,0-5.57-0.05-8.35-0.19c-0.68-0.05-0.84,0.82-0.67,1.34 c0.22,0.65,1.08,0.43,1.75,0.46C235.47,183.84,239.63,184.06,243.81,184.26L243.81,184.26z"></path> </g> <g> <g> <path d="M243.98,189.74h-13.93c-0.38,0-0.69-0.31-0.69-0.69l0,0c0-0.38,0.31-0.69,0.69-0.69h13.93c0.38,0,0.69,0.31,0.69,0.69 l0,0C244.67,189.42,244.36,189.74,243.98,189.74z"></path> <path d="M243.98,189.77c-4.03,0.2-8.04,0.42-12.08,0.08c-0.87-0.14-2.68,0.49-2.7-0.91c0.03-0.42,0.4-0.79,0.85-0.8 c4.71-0.21,9.41-0.35,14.11,0.12C245,188.51,244.85,189.78,243.98,189.77L243.98,189.77z M243.98,189.7 c0.32,0,0.61-0.27,0.63-0.58c-0.01-1.14-1.74-0.44-2.49-0.52c-4.02,0.28-8.05,0.13-12.08-0.04c-0.24-0.02-0.49,0.17-0.53,0.43 c-0.05,0.26,0.13,0.55,0.4,0.61c0.61,0.04,1.32,0.03,1.98,0.03C235.94,189.28,239.95,189.5,243.98,189.7L243.98,189.7z"></path> </g> <g> <path d="M237.81,193.01h-7.93c-0.29,0-0.53-0.24-0.53-0.53v-0.32c0-0.29,0.24-0.53,0.53-0.53h7.93c0.29,0,0.53,0.24,0.53,0.53 v0.32C238.34,192.77,238.1,193.01,237.81,193.01z"></path> <path d="M237.81,193.05c-1.65,0-3.3,0.43-4.96,0.27c-1.06-0.09-2.06-0.18-3.12-0.22c-0.25-0.06-0.44-0.27-0.49-0.52 c-0.09-0.51,0.01-1.12,0.65-1.16c1.65-0.14,3.3-0.19,4.96-0.19c1.07,0.02,2.07,0.06,3.14,0.25c0.26,0.09,0.44,0.33,0.46,0.58 C238.45,192.48,238.35,193.07,237.81,193.05L237.81,193.05z M237.81,192.98c0.47-0.01,0.52-0.52,0.42-0.88 c-0.05-0.16-0.19-0.27-0.33-0.28c-0.98,0.12-2.06,0.22-3.05,0.22c-1.65,0-3.3-0.05-4.96-0.19c-0.38-0.03-0.42,0.4-0.4,0.71 c0.06,0.44,0.53,0.35,0.89,0.35C232.86,192.55,235.32,192.77,237.81,192.98L237.81,192.98z"></path> </g> <g> <path d="M253.96,193.01h-12.81c-0.37,0-0.67-0.3-0.67-0.67v-0.05c0-0.37,0.3-0.67,0.67-0.67h12.81c0.37,0,0.67,0.3,0.67,0.67 v0.05C254.63,192.71,254.33,193.01,253.96,193.01z"></path> <path d="M253.96,193.05c-3.74,0.2-7.46,0.42-11.21,0.08c-0.54-0.04-1.43,0.07-1.91-0.06c-0.81-0.33-0.58-1.65,0.32-1.65 c4.37-0.18,8.79-0.43,13.12,0.17C254.97,191.92,254.74,193.07,253.96,193.05L253.96,193.05z M253.96,192.98 c0.66,0.02,0.84-1,0.22-1.2c-0.23-0.07-0.59,0.02-0.88,0.02c-4.04,0.37-8.1,0.23-12.15,0.03c-0.54-0.05-0.71,0.8-0.21,1 c0.41,0.12,1.33,0.03,1.81,0.06C246.5,192.55,250.22,192.77,253.96,192.98L253.96,192.98z"></path> </g> <g> <path d="M265.93,189.74h-18.27c-0.38,0-0.69-0.31-0.69-0.69l0,0c0-0.38,0.31-0.69,0.69-0.69h18.27c0.38,0,0.69,0.31,0.69,0.69 l0,0C266.62,189.42,266.31,189.74,265.93,189.74z"></path> <path d="M265.93,189.77c-3.41,0-6.81,0.43-10.22,0.27c-2.55-0.09-5.11-0.25-7.66-0.18c-0.43,0.06-1.07-0.05-1.2-0.59 c-0.18-0.51,0.25-1.13,0.82-1.13c5.95-0.23,11.94-0.32,17.88,0.1c0.41-0.02,1,0.08,1.1,0.59 C266.78,189.3,266.39,189.79,265.93,189.77L265.93,189.77z M265.93,189.7c0.42,0.01,0.75-0.44,0.61-0.83 c-0.15-0.45-0.58-0.46-0.99-0.41c-5.94,0.42-11.94,0.33-17.88,0.1c-0.54-0.04-0.73,0.8-0.2,1c2.72,0.19,5.51-0.06,8.25-0.13 C259.12,189.27,262.52,189.7,265.93,189.7L265.93,189.7z"></path> </g> <g> <path d="M243.98,196.29h-13.93c-0.38,0-0.69-0.31-0.69-0.69l0,0c0-0.38,0.31-0.69,0.69-0.69h13.93c0.38,0,0.69,0.31,0.69,0.69 l0,0C244.67,195.98,244.36,196.29,243.98,196.29z"></path> <path d="M243.98,196.33c-4.03,0.2-8.04,0.42-12.08,0.08c-0.87-0.14-2.68,0.49-2.7-0.91c0.03-0.42,0.4-0.79,0.85-0.8 c4.71-0.21,9.41-0.35,14.11,0.12C245,195.06,244.85,196.34,243.98,196.33L243.98,196.33z M243.98,196.25 c0.32,0,0.61-0.27,0.63-0.58c-0.01-1.14-1.74-0.44-2.49-0.52c-4.02,0.28-8.05,0.13-12.08-0.04c-0.24-0.02-0.49,0.17-0.53,0.43 c-0.05,0.26,0.13,0.55,0.4,0.61c0.61,0.04,1.32,0.03,1.98,0.03C235.94,195.83,239.95,196.05,243.98,196.25L243.98,196.25z"></path> </g> <g> <path d="M265.93,196.29h-18.27c-0.38,0-0.69-0.31-0.69-0.69l0,0c0-0.38,0.31-0.69,0.69-0.69h18.27c0.38,0,0.69,0.31,0.69,0.69 l0,0C266.62,195.98,266.31,196.29,265.93,196.29z"></path> <path d="M265.93,196.33c-3.41,0-6.81,0.43-10.22,0.27c-2.55-0.09-5.11-0.25-7.66-0.18c-0.43,0.06-1.07-0.05-1.2-0.59 c-0.18-0.51,0.25-1.13,0.82-1.13c5.95-0.23,11.94-0.32,17.88,0.1c0.41-0.02,1,0.08,1.1,0.59 C266.78,195.85,266.39,196.35,265.93,196.33L265.93,196.33z M265.93,196.25c0.42,0.01,0.75-0.44,0.61-0.83 c-0.15-0.45-0.58-0.46-0.99-0.41c-5.94,0.42-11.94,0.33-17.88,0.1c-0.54-0.04-0.73,0.8-0.2,1c2.72,0.19,5.51-0.06,8.25-0.13 C259.12,195.82,262.52,196.25,265.93,196.25L265.93,196.25z"></path> </g> </g> <g> <path d="M257.07,184.3h-9.77c-0.4,0-0.73-0.33-0.73-0.73v-0.65c0-0.4,0.33-0.73,0.73-0.73h9.77c0.4,0,0.73,0.33,0.73,0.73v0.65 C257.8,183.97,257.47,184.3,257.07,184.3z"></path> <path d="M257.07,184.34c-3.19,0.2-6.35,0.42-9.55,0.08c-0.24,0.02-0.61-0.02-0.82-0.25c-0.24-0.2-0.28-0.58-0.27-0.82 c0,0-0.01-0.4-0.01-0.4c-0.05-0.49,0.36-0.97,0.87-0.98c2.12-0.14,4.24-0.19,6.36-0.19c1.22,0.03,2.42,0.02,3.63,0.22 c0.49,0.12,0.73,0.73,0.61,1.13C257.91,183.67,257.77,184.33,257.07,184.34L257.07,184.34z M257.07,184.26 c0.62-0.02,0.73-0.62,0.63-1.14c0.02-0.56-0.36-0.84-0.85-0.7c-1.06,0.11-2.12,0.14-3.18,0.15c-2.12,0-4.24-0.05-6.36-0.19 c-0.53-0.02-0.64,0.48-0.6,0.97c-0.11,0.53,0.29,0.93,0.82,0.83c1.06-0.03,2.12-0.14,3.18-0.19 C252.83,183.83,254.95,184.26,257.07,184.26L257.07,184.26z"></path> </g> </g> <g> <g> <path d="M252.83,52.03h-13.6c-0.47,0-0.86-0.39-0.86-0.86v-0.41c0-0.47,0.39-0.86,0.86-0.86h13.6c0.47,0,0.86,0.39,0.86,0.86 v0.41C253.69,51.65,253.31,52.03,252.83,52.03z"></path> <path d="M252.83,52.07c-2.78,0-5.57,0.43-8.35,0.27c-1.73-0.07-3.49-0.21-5.22-0.2c-0.39,0.02-0.79-0.22-0.95-0.6 c-0.26-0.75-0.05-1.81,0.91-1.85c2.78-0.14,5.57-0.19,8.35-0.19c1.39,0.02,2.78,0.04,4.18,0.15c0.63,0.06,1.75-0.06,1.96,0.74 C253.91,51.08,253.69,52.08,252.83,52.07L252.83,52.07z M252.83,51.99c0.79-0.01,0.93-0.93,0.7-1.51 c-0.14-0.28-0.44-0.43-0.73-0.4c-1.73,0.14-3.49,0.22-5.22,0.23c-2.78,0-5.57-0.05-8.35-0.19c-0.68-0.05-0.84,0.82-0.67,1.34 c0.22,0.65,1.08,0.43,1.75,0.46C244.49,51.57,248.66,51.79,252.83,51.99L252.83,51.99z"></path> </g> <g> <g> <path d="M253,57.47h-13.93c-0.38,0-0.69-0.31-0.69-0.69l0,0c0-0.38,0.31-0.69,0.69-0.69H253c0.38,0,0.69,0.31,0.69,0.69l0,0 C253.69,57.16,253.38,57.47,253,57.47z"></path> <path d="M253,57.51c-4.03,0.2-8.04,0.42-12.08,0.08c-0.87-0.14-2.68,0.49-2.7-0.91c0.03-0.42,0.4-0.79,0.85-0.8 c4.71-0.21,9.41-0.35,14.11,0.12C254.02,56.24,253.87,57.51,253,57.51L253,57.51z M253,57.43c0.32,0,0.61-0.27,0.63-0.58 c-0.01-1.14-1.74-0.44-2.49-0.52c-4.02,0.28-8.05,0.13-12.08-0.04c-0.24-0.02-0.49,0.17-0.53,0.43 c-0.05,0.26,0.13,0.55,0.4,0.61c0.61,0.04,1.32,0.03,1.98,0.03C244.96,57.01,248.97,57.23,253,57.43L253,57.43z"></path> </g> <g> <path d="M246.83,60.75h-7.93c-0.29,0-0.53-0.24-0.53-0.53v-0.32c0-0.29,0.24-0.53,0.53-0.53h7.93c0.29,0,0.53,0.24,0.53,0.53 v0.32C247.36,60.51,247.12,60.75,246.83,60.75z"></path> <path d="M246.83,60.78c-1.65,0-3.3,0.43-4.96,0.27c-1.06-0.09-2.06-0.18-3.12-0.22c-0.25-0.06-0.44-0.27-0.49-0.52 c-0.09-0.51,0.01-1.12,0.65-1.16c1.65-0.14,3.3-0.19,4.96-0.19c1.07,0.02,2.07,0.06,3.14,0.25c0.26,0.09,0.44,0.33,0.46,0.58 C247.47,60.21,247.37,60.8,246.83,60.78L246.83,60.78z M246.83,60.71c0.47-0.01,0.51-0.52,0.42-0.88 c-0.05-0.16-0.19-0.27-0.33-0.28c-0.98,0.12-2.06,0.22-3.05,0.22c-1.65,0-3.3-0.05-4.96-0.19c-0.38-0.03-0.42,0.4-0.4,0.71 c0.06,0.44,0.53,0.35,0.89,0.35C241.88,60.29,244.34,60.51,246.83,60.71L246.83,60.71z"></path> </g> <g> <path d="M262.98,60.75h-12.81c-0.37,0-0.67-0.3-0.67-0.67v-0.05c0-0.37,0.3-0.67,0.67-0.67h12.81c0.37,0,0.67,0.3,0.67,0.67 v0.05C263.65,60.45,263.35,60.75,262.98,60.75z"></path> <path d="M262.98,60.78c-3.74,0.2-7.46,0.42-11.21,0.08c-0.54-0.04-1.43,0.07-1.91-0.06c-0.81-0.33-0.58-1.65,0.32-1.65 c4.37-0.18,8.79-0.43,13.12,0.17C263.99,59.66,263.76,60.8,262.98,60.78L262.98,60.78z M262.98,60.71 c0.66,0.02,0.84-1,0.22-1.2c-0.23-0.07-0.59,0.02-0.88,0.02c-4.04,0.37-8.1,0.23-12.15,0.03c-0.54-0.05-0.71,0.8-0.21,1 c0.41,0.12,1.33,0.03,1.81,0.06C255.52,60.29,259.24,60.51,262.98,60.71L262.98,60.71z"></path> </g> <g> <path d="M274.95,57.47h-18.27c-0.38,0-0.69-0.31-0.69-0.69l0,0c0-0.38,0.31-0.69,0.69-0.69h18.27c0.38,0,0.69,0.31,0.69,0.69 l0,0C275.64,57.16,275.33,57.47,274.95,57.47z"></path> <path d="M274.95,57.51c-3.41,0-6.81,0.43-10.22,0.27c-2.55-0.09-5.11-0.25-7.66-0.18c-0.43,0.06-1.07-0.05-1.2-0.59 c-0.18-0.51,0.25-1.13,0.82-1.13c5.95-0.23,11.94-0.32,17.88,0.1c0.41-0.02,1,0.08,1.1,0.59 C275.81,57.03,275.42,57.53,274.95,57.51L274.95,57.51z M274.95,57.43c0.42,0.01,0.75-0.44,0.61-0.83 c-0.15-0.45-0.58-0.46-0.99-0.41c-5.94,0.42-11.94,0.33-17.88,0.1c-0.54-0.04-0.73,0.8-0.2,1c2.72,0.19,5.51-0.06,8.25-0.13 C268.14,57,271.54,57.43,274.95,57.43L274.95,57.43z"></path> </g> </g> <g> <path d="M266.09,52.03h-9.77c-0.4,0-0.73-0.33-0.73-0.73v-0.65c0-0.4,0.33-0.73,0.73-0.73h9.77c0.4,0,0.73,0.33,0.73,0.73v0.65 C266.83,51.7,266.49,52.03,266.09,52.03z"></path> <path d="M266.09,52.07c-3.19,0.2-6.35,0.42-9.55,0.08c-0.24,0.02-0.61-0.02-0.82-0.25c-0.24-0.2-0.28-0.58-0.27-0.82 c0,0-0.01-0.4-0.01-0.4c-0.05-0.49,0.36-0.97,0.87-0.98c2.12-0.14,4.24-0.19,6.36-0.19c1.22,0.03,2.42,0.02,3.63,0.22 c0.49,0.12,0.73,0.73,0.61,1.13C266.93,51.4,266.79,52.07,266.09,52.07L266.09,52.07z M266.09,51.99 c0.62-0.02,0.73-0.62,0.63-1.14c0.02-0.56-0.36-0.84-0.85-0.7c-1.06,0.11-2.12,0.14-3.18,0.15c-2.12,0-4.24-0.05-6.36-0.19 c-0.53-0.02-0.64,0.48-0.6,0.97c-0.11,0.53,0.29,0.93,0.82,0.83c1.06-0.03,2.12-0.14,3.18-0.19 C261.85,51.57,263.97,51.99,266.09,51.99L266.09,51.99z"></path> </g> </g> <g> <g> <path d="M264.86,143.87h-14.89c-0.52,0-0.94-0.42-0.94-0.94v-0.45c0-0.52,0.42-0.94,0.94-0.94h14.89c0.52,0,0.94,0.42,0.94,0.94 v0.45C265.79,143.45,265.37,143.87,264.86,143.87z"></path> <path d="M264.86,143.91c-3.05,0-6.09,0.43-9.14,0.27c-1.9-0.07-3.81-0.21-5.71-0.19c-0.67,0.06-1.2-0.63-1.11-1.26 c-0.12-0.64,0.35-1.39,1.08-1.38c3.05-0.14,6.09-0.19,9.14-0.19c1.52,0.01,3.05,0.05,4.57,0.15c0.69,0.07,1.89-0.08,2.14,0.79 C266.03,142.83,265.79,143.93,264.86,143.91L264.86,143.91z M264.86,143.84c0.87-0.01,1.03-1.01,0.77-1.66 c-0.31-0.71-1.37-0.36-1.95-0.38c-1.52,0.1-3.05,0.14-4.57,0.15c-3.05,0-6.09-0.05-9.14-0.19c-0.76-0.05-0.93,0.91-0.75,1.49 c0.25,0.72,1.19,0.48,1.92,0.5C255.72,143.43,260.28,143.63,264.86,143.84L264.86,143.84z"></path> </g> <g> <g> <path d="M265.04,149.83h-15.25c-0.42,0-0.76-0.34-0.76-0.76l0,0c0-0.42,0.34-0.76,0.76-0.76h15.25c0.42,0,0.76,0.34,0.76,0.76 l0,0C265.79,149.49,265.45,149.83,265.04,149.83z"></path> <path d="M265.04,149.86c-2.94,0-5.88,0.43-8.82,0.27c-2.23-0.11-4.39-0.21-6.64-0.2c-1.03-0.23-0.88-1.8,0.2-1.83 c5.16-0.21,10.3-0.35,15.45,0.12C266.15,148.48,265.99,149.87,265.04,149.86L265.04,149.86z M265.04,149.79 c0.35,0,0.67-0.29,0.7-0.64c-0.01-1.25-1.91-0.5-2.73-0.59c-4.41,0.28-8.82,0.14-13.22-0.04c-0.68-0.04-0.83,1-0.14,1.16 c2.16,0.11,4.41-0.08,6.58-0.16C259.16,149.36,262.1,149.79,265.04,149.79L265.04,149.79z"></path> </g> <g> <path d="M258.28,153.41h-8.68c-0.32,0-0.58-0.26-0.58-0.58v-0.35c0-0.32,0.26-0.58,0.58-0.58h8.68c0.32,0,0.58,0.26,0.58,0.58 v0.35C258.86,153.15,258.6,153.41,258.28,153.41z"></path> <path d="M258.28,153.45c-3.23,0.27-5.58,0.36-8.85,0.05c-0.42-0.08-0.59-0.55-0.55-0.92c-0.08-0.42,0.26-0.89,0.72-0.89 c2.71-0.18,5.43-0.32,8.14-0.04c0.45,0.02,1.19,0.1,1.21,0.72C258.98,152.83,258.87,153.47,258.28,153.45L258.28,153.45z M258.28,153.38c0.68,0.02,0.67-1.24,0.1-1.29c-2.9,0.34-5.86,0.22-8.78,0.02c-0.43-0.03-0.47,0.45-0.45,0.8 c0.07,0.49,0.59,0.39,0.98,0.39C252.87,152.95,255.57,153.18,258.28,153.38L258.28,153.38z"></path> </g> <g> <path d="M275.97,153.41h-14.02c-0.4,0-0.73-0.33-0.73-0.73v-0.06c0-0.4,0.33-0.73,0.73-0.73h14.02c0.4,0,0.73,0.33,0.73,0.73 v0.06C276.7,153.09,276.37,153.41,275.97,153.41z"></path> <path d="M275.97,153.45c-4.09,0.2-8.17,0.42-12.28,0.08c0,0-1.02-0.01-1.02-0.01c-0.33-0.02-0.74,0.07-1.07-0.06 c-0.87-0.36-0.62-1.77,0.34-1.78c4.78-0.17,9.62-0.44,14.35,0.17C277.06,152.23,276.81,153.48,275.97,153.45L275.97,153.45z M275.97,153.38c0.73,0.02,0.92-1.1,0.25-1.32c-0.26-0.08-0.64,0.01-0.97,0.02c-4.42,0.37-8.87,0.23-13.3,0.03 c-0.6-0.05-0.8,0.9-0.24,1.13c0.46,0.13,1.46,0.04,1.98,0.06C267.8,152.96,271.87,153.18,275.97,153.38L275.97,153.38z"></path> </g> <g> <path d="M289.07,149.83h-20c-0.42,0-0.76-0.34-0.76-0.76l0,0c0-0.42,0.34-0.76,0.76-0.76h20c0.42,0,0.76,0.34,0.76,0.76l0,0 C289.83,149.49,289.49,149.83,289.07,149.83z"></path> <path d="M289.07,149.86c-3.73,0-7.46,0.43-11.19,0.27c-2.8-0.09-5.59-0.25-8.39-0.18c-0.47,0.06-1.15-0.06-1.3-0.64 c-0.2-0.55,0.27-1.22,0.88-1.21c6.51-0.23,13.07-0.32,19.58,0.1c0.45-0.02,1.09,0.09,1.2,0.64 C290,149.34,289.58,149.89,289.07,149.86L289.07,149.86z M289.07,149.79c0.76,0,0.98-1.11,0.25-1.36 c-0.19-0.07-0.43-0.02-0.66-0.02c-6.51,0.42-13.07,0.33-19.58,0.1c-0.62-0.04-0.83,0.89-0.22,1.13 c2.98,0.2,6.04-0.06,9.03-0.13C281.61,149.36,285.34,149.79,289.07,149.79L289.07,149.79z"></path> </g> <g> <path d="M265.04,157h-15.25c-0.42,0-0.76-0.34-0.76-0.76l0,0c0-0.42,0.34-0.76,0.76-0.76h15.25c0.42,0,0.76,0.34,0.76,0.76l0,0 C265.79,156.66,265.45,157,265.04,157z"></path> <path d="M265.04,157.04c-2.94,0-5.88,0.43-8.82,0.27c-2.23-0.11-4.39-0.21-6.64-0.2c-1.03-0.23-0.88-1.8,0.2-1.83 c5.16-0.21,10.3-0.35,15.45,0.12C266.15,155.66,265.99,157.05,265.04,157.04L265.04,157.04z M265.04,156.96 c0.35,0,0.67-0.29,0.7-0.64c-0.01-1.25-1.91-0.5-2.73-0.59c-4.41,0.28-8.82,0.14-13.22-0.04c-0.68-0.04-0.83,1-0.14,1.16 c2.16,0.11,4.41-0.08,6.58-0.16C259.16,156.54,262.1,156.97,265.04,156.96L265.04,156.96z"></path> </g> <g> <path d="M289.07,157h-20c-0.42,0-0.76-0.34-0.76-0.76l0,0c0-0.42,0.34-0.76,0.76-0.76h20c0.42,0,0.76,0.34,0.76,0.76l0,0 C289.83,156.66,289.49,157,289.07,157z"></path> <path d="M289.07,157.04c-3.73,0-7.46,0.43-11.19,0.27c-2.8-0.09-5.59-0.25-8.39-0.18c-0.47,0.06-1.15-0.06-1.3-0.64 c-0.2-0.55,0.27-1.22,0.88-1.21c6.51-0.23,13.07-0.32,19.58,0.1c0.45-0.02,1.09,0.09,1.2,0.64 C290,156.52,289.58,157.06,289.07,157.04L289.07,157.04z M289.07,156.96c0.76,0,0.98-1.11,0.25-1.36 c-0.19-0.07-0.43-0.02-0.66-0.02c-6.51,0.42-13.07,0.33-19.58,0.1c-0.62-0.04-0.83,0.89-0.22,1.13 c2.98,0.2,6.04-0.06,9.03-0.13C281.61,156.54,285.34,156.97,289.07,156.96L289.07,156.96z"></path> </g> </g> <g> <g> <path d="M265.04,160.74h-15.25c-0.42,0-0.76-0.34-0.76-0.76l0,0c0-0.42,0.34-0.76,0.76-0.76h15.25c0.42,0,0.76,0.34,0.76,0.76 l0,0C265.79,160.39,265.45,160.74,265.04,160.74z"></path> <path d="M265.04,160.77c-2.94,0-5.88,0.43-8.82,0.27c-2.23-0.11-4.39-0.21-6.64-0.2c-1.03-0.23-0.88-1.8,0.2-1.83 c5.16-0.21,10.3-0.35,15.45,0.12C266.15,159.39,265.99,160.78,265.04,160.77L265.04,160.77z M265.04,160.7 c0.35,0,0.67-0.29,0.7-0.64c-0.01-1.25-1.91-0.5-2.73-0.59c-4.41,0.28-8.82,0.14-13.22-0.04c-0.68-0.04-0.83,1-0.14,1.16 c2.16,0.11,4.41-0.08,6.58-0.16C259.16,160.27,262.1,160.7,265.04,160.7L265.04,160.7z"></path> </g> <g> <path d="M289.07,160.74h-20c-0.42,0-0.76-0.34-0.76-0.76l0,0c0-0.42,0.34-0.76,0.76-0.76h20c0.42,0,0.76,0.34,0.76,0.76l0,0 C289.83,160.39,289.49,160.74,289.07,160.74z"></path> <path d="M289.07,160.77c-3.73,0-7.46,0.43-11.19,0.27c-2.8-0.09-5.59-0.25-8.39-0.18c-0.47,0.06-1.15-0.06-1.3-0.64 c-0.2-0.55,0.27-1.22,0.88-1.21c6.51-0.23,13.07-0.32,19.58,0.1c0.45-0.02,1.09,0.09,1.2,0.64 C290,160.25,289.58,160.8,289.07,160.77L289.07,160.77z M289.07,160.7c0.76,0,0.98-1.11,0.25-1.35 c-0.19-0.07-0.43-0.02-0.66-0.02c-6.51,0.42-13.07,0.33-19.58,0.1c-0.62-0.04-0.83,0.89-0.22,1.13 c2.98,0.2,6.04-0.06,9.03-0.13C281.61,160.27,285.34,160.7,289.07,160.7L289.07,160.7z"></path> </g> </g> <g> <path d="M279.37,143.87h-10.69c-0.44,0-0.8-0.36-0.8-0.8v-0.72c0-0.44,0.36-0.8,0.8-0.8h10.69c0.44,0,0.8,0.36,0.8,0.8v0.72 C280.17,143.51,279.81,143.87,279.37,143.87z"></path> <path d="M279.37,143.91c-3.49,0.2-6.95,0.42-10.45,0.08c-0.27,0.02-0.66-0.03-0.89-0.27c-0.26-0.22-0.31-0.63-0.29-0.89 c0,0-0.01-0.44-0.01-0.44c-0.05-0.53,0.39-1.04,0.94-1.05c3.48-0.18,6.97-0.32,10.45-0.04c0.74-0.04,1.32,0.56,1.15,1.29 C280.29,143.18,280.14,143.91,279.37,143.91L279.37,143.91z M279.37,143.84c0.68-0.02,0.81-0.68,0.7-1.25 c0.03-0.61-0.4-0.94-0.94-0.79c-3.48,0.28-6.97,0.13-10.45-0.04c-0.59-0.02-0.72,0.55-0.67,1.08c-0.02,0.31,0,0.53,0.19,0.72 c0.19,0.2,0.42,0.21,0.73,0.19c1.16-0.03,2.32-0.14,3.48-0.19C274.72,143.41,277.05,143.84,279.37,143.84L279.37,143.84z"></path> </g> </g> <g> <g> <path d="M229.58,40.98l-1.03,0.74l-1.04-0.73c0.23-0.32,0.61-0.54,1.04-0.54C228.97,40.45,229.35,40.66,229.58,40.98z"></path> <path d="M229.62,40.99c-0.14,0.47-0.66,0.94-1.16,1.09c-0.18-0.2-0.3-0.46-0.5-0.63c-0.19-0.17-0.47-0.24-0.72-0.32 C227.44,39.86,229.37,39.62,229.62,40.99L229.62,40.99z M229.55,40.98c-0.66-0.19-1.22-0.24-1.85,0.14c0,0-0.05-0.31-0.05-0.31 c0.25,0.41,0.64,0.57,1.09,0.67c0,0-0.35,0-0.35,0C228.68,41.14,229.05,41.16,229.55,40.98L229.55,40.98z"></path> </g> <g> <g> <path d="M228.55,38.64c-1.04,0-1.96,0.52-2.52,1.31l0.66,0.46c0.41-0.58,1.09-0.97,1.86-0.97c0.76,0,1.44,0.38,1.85,0.95 l0.65-0.47C230.49,39.15,229.58,38.64,228.55,38.64z"></path> <g> <path d="M228.55,38.68c-0.98,0-1.66,0.81-2.26,1.45c0,0-0.08-0.44-0.08-0.44c0.2,0.18,0.4,0.37,0.59,0.55l-0.28,0.05 c1.08-1.19,3.15-1.57,4.19-0.12c0,0-0.54-0.09-0.54-0.09c0.21-0.17,0.43-0.32,0.65-0.48l-0.09,0.56 C230.22,39.47,229.5,38.69,228.55,38.68L228.55,38.68z M228.55,38.6c1.23-0.06,2.38,0.27,3.07,1.41 c-0.42,0.31-0.89,0.65-1.34,0.92c-0.56-1.29-2.71-1.92-3.42-0.41c0,0-0.07,0.15-0.07,0.15l-0.21-0.11 c-0.32-0.16-0.66-0.33-0.97-0.5C226.13,38.86,227.36,38.56,228.55,38.6L228.55,38.6z"></path> </g> </g> </g> <g> <g> <path d="M228.55,35.2c-2.2,0-4.15,1.09-5.33,2.77l0.66,0.46c1.03-1.46,2.74-2.42,4.67-2.42c1.91,0,3.61,0.94,4.65,2.39 l0.65-0.47C232.66,36.28,230.73,35.2,228.55,35.2z"></path> <g> <path d="M228.55,35.24c-2.08,0-3.84,1.37-5.07,2.91c0,0-0.08-0.43-0.08-0.43l0.63,0.5l-0.36,0.06 c1.8-2.15,5.03-3.21,7.64-1.95c0.86,0.42,1.64,1.04,2.21,1.83l-0.56-0.09l0.65-0.47l-0.09,0.56 C232.38,36.58,230.59,35.25,228.55,35.24L228.55,35.24z M228.55,35.16c2.25-0.07,4.62,0.86,5.86,2.85 c-0.36,0.26-0.94,0.68-1.3,0.94c-1.99-3.33-7.24-3.87-9.14-0.17c-0.3-0.18-0.88-0.53-1.18-0.72 C223.9,36.01,226.32,35.11,228.55,35.16L228.55,35.16z"></path> </g> </g> </g> <g> <g> <path d="M228.55,37.08c-1.57,0-2.95,0.78-3.8,1.96l0.66,0.46c0.7-0.98,1.85-1.62,3.14-1.62c1.28,0,2.42,0.63,3.13,1.59 l0.65-0.47C231.48,37.85,230.1,37.08,228.55,37.08z"></path> <g> <path d="M228.55,37.12c-1.48,0-2.65,1.06-3.54,2.11c0,0-0.07-0.44-0.07-0.44l0.61,0.52l-0.33,0.06 c1.29-1.4,3.43-2.19,5.24-1.36c0.6,0.28,1.14,0.71,1.55,1.24c0,0-0.55-0.09-0.55-0.09l0.65-0.47L232,39.25 C231.2,38.16,229.99,37.13,228.55,37.12L228.55,37.12z M228.55,37.05c1.66-0.07,3.43,0.56,4.34,2.06 c-0.37,0.26-0.95,0.68-1.32,0.94c-1.23-2.26-4.87-2.82-6.08-0.21c-0.3-0.17-0.88-0.51-1.18-0.68 C225.09,37.58,226.92,36.99,228.55,37.05L228.55,37.05z"></path> </g> </g> </g> </g> <g> <path class="st1" d="M222.74,150.6c0,1.52,0.51,2.92,1.37,4.03c0.29,0.37,0.61,0.71,0.97,1.01c0.35,0.3,0.74,0.56,1.15,0.79 c0.93,0.5,1.99,0.78,3.12,0.78c1.41,0,2.72-0.44,3.79-1.19c0.05-0.04,0.11-0.08,0.16-0.12c0.49-0.36,0.92-0.79,1.29-1.27 c0.86-1.12,1.37-2.51,1.37-4.03c0-3.65-2.96-6.61-6.62-6.61C225.7,143.98,222.74,146.94,222.74,150.6z"></path> <path d="M222.84,150.6c-0.02,3.47,3.49,5.52,6.51,5.78c3.31,0.5,6.57-2.31,6.07-5.78c-0.35-3.11-2.99-5.57-6.07-5.55 C226.34,144.99,222.83,147.2,222.84,150.6L222.84,150.6z M222.64,150.6c-0.18-3.77,2.55-7.76,6.72-7.68 c6.79,0.07,9.45,7.95,4.9,12.59C229.53,160.69,222.49,157.4,222.64,150.6L222.64,150.6z"></path> </g> <g> <path d="M231.14,154.84l-0.61-0.54c-0.05,0.01-0.1,0.02-0.15,0.03c-0.11-0.08-0.23-0.15-0.36-0.22c0.04-0.25,0.07-0.47,0.1-0.68 c0.09-0.71,0.1-1.14,0.1-1.2c0.32-0.02,0.54-0.05,0.54-0.05c0.61-0.14,0.64-2.23,0.5-3.31c0.12,0,0.23-0.01,0.34-0.06 c0.46-0.2,0.49-0.9,0.49-0.9s-0.13,0.25-0.33,0.33c0,0,0.77-1.06-0.12-1.78c-0.89-0.73-1.81-0.25-2.33-0.22 c-1.14,0.07-1.88,0.14-2.25,0.89c-0.37,0.74-0.22,2.78,0.48,3.52c0.01,0.07,0.02,0.14,0.03,0.21c0.04,0.27,0.14,0.49,0.28,0.66 c-0.16,0.88-0.52,1.53-0.84,1.97c-0.22,0.17-0.42,0.39-0.61,0.65c-0.01,0-0.01,0.01-0.01,0.01s0,0,0.01,0 c-0.34,0.49-0.63,1.13-0.85,1.87c0,0,0,0.01,0,0.01c0.37,0.26,0.78,0.49,1.21,0.66c0.03,0.01,0.06,0.02,0.08,0.03 c0.01,0,0.01,0.01,0.02,0.01c0.05,0.02,0.09,0.04,0.14,0.05c0.11,0.04,0.22,0.08,0.34,0.12c0.12,0.04,0.24,0.07,0.36,0.1 c0.06,0.01,0.11,0.03,0.17,0.04c0.05,0.01,0.1,0.02,0.15,0.03c0.01,0,0.01,0,0.02,0.01c0.03,0.01,0.07,0.01,0.1,0.02 c0.08,0.01,0.16,0.03,0.23,0.04c0.02,0,0.04,0.01,0.05,0.01c0.04,0.01,0.09,0.01,0.13,0.02c0.06,0.01,0.12,0.01,0.18,0.02 c0.07,0.01,0.14,0.01,0.21,0.02c0.06,0.01,0.13,0.01,0.2,0.01c0.07,0,0.14,0,0.21,0c0.07,0,0.15,0,0.22,0c0.01,0,0.01,0,0.02,0 c0.02,0,0.04,0,0.05,0c0.04,0,0.07,0,0.11-0.01c0.01,0,0.01,0,0.01,0c0.07,0,0.14-0.01,0.21-0.02c0.89-0.08,1.74-0.35,2.49-0.75 C232.07,155.77,231.6,155.26,231.14,154.84z"></path> <g> <path d="M231.12,154.87l-0.61-0.53l0.04,0.01c-0.03,0-0.17,0.05-0.19,0.02c-0.02-0.01-0.39-0.23-0.4-0.23 c0.11-0.69,0.08-1.37,0.11-2.05c0.1-0.02,0.51-0.08,0.63-0.1c0.57-0.62,0.27-2.25,0.24-3.08c0,0-0.04-0.38-0.04-0.38 c0.21,0,0.6,0.06,0.72-0.15c0.09-0.11,0.15-0.33,0.17-0.5l0.59,0.16c-0.06,0.1-0.11,0.17-0.19,0.25 c-0.14,0.2-1.06,0.48-1.29,0.59c0,0,0.63-0.84,0.63-0.84c0.96-1.24-0.57-2.18-1.77-1.77c-0.81,0.17-1.85-0.03-2.42,0.66 c-0.59,1.02-0.21,2.76,0.49,3.56c0.05,0.41,0.14,0.67,0.38,0.91c0,0-0.02,0.15-0.02,0.15c-0.12,0.77-0.43,1.52-0.9,2.16 c-0.26,0.18-0.45,0.5-0.66,0.71c0,0-0.23-0.69-0.23-0.69c0.06,0,0.12,0.02,0.17,0.04l0.39,0.19c-0.46,0.64-0.8,1.35-1.03,2.14 c0,0-0.03,0.07-0.03,0.07c0,0-0.13-0.5-0.13-0.5c1.61,1.1,3.47,1.46,5.32,1.1c0.45-0.1,0.89-0.25,1.32-0.44 c0,0-0.04,0.13-0.04,0.13C232.07,155.87,231.62,155.34,231.12,154.87L231.12,154.87z M231.17,154.81 c0.54,0.49,1.03,1.03,1.42,1.65c0,0-0.09,0.05-0.09,0.05c-0.81,0.5-1.75,0.84-2.7,0.96c-0.28,0.07-1.62,0.08-2.39-0.16 c-0.83-0.23-1.57-0.56-2.35-1.15c0.23-0.62,0.48-1.52,1.03-2.25c0,0,0.14,0.57,0.14,0.57c0.05,0.02,0.11,0.04,0.16,0.04 c0,0-0.23-0.69-0.23-0.69l0.03-0.02l-0.1,0.1c0.19-0.26,0.42-0.51,0.69-0.72l-0.07,0.07c0.41-0.52,0.68-1.15,0.82-1.8l0.07,0.26 c-0.24-0.3-0.33-0.75-0.35-1.02l0.08,0.15c-0.64-0.81-0.67-1.78-0.65-2.73c0.08-2.03,1.51-1.85,3.02-2.08 c1.57-0.55,3.38,0.68,2.3,2.38c0,0-0.35-0.45-0.35-0.45c0.03-0.01,0.13-0.12,0.17-0.2l0.69-1.31c0,0-0.1,1.47-0.1,1.47 c0.01,0.62-0.47,1.35-1.15,1.29c0,0,0.34-0.38,0.34-0.38c0.1,1.06,0.13,2.13-0.31,3.13c-0.08,0.16-0.26,0.4-0.52,0.42 l-0.53,0.02l0.16-0.16c-0.08,0.56-0.19,1.35-0.31,1.89c0,0-0.03-0.06-0.03-0.06l0.35,0.24c0,0-0.03-0.01-0.03-0.01 c0,0,0.17-0.03,0.17-0.03c0,0,0.02,0.01,0.02,0.01L231.17,154.81L231.17,154.81z"></path> </g> </g> <g> <path class="st1" d="M287.68,189.04c0,1.53,0.51,2.94,1.38,4.06c0.29,0.37,0.61,0.72,0.97,1.02c1.16,0.98,2.66,1.58,4.3,1.58 c1.49,0,2.87-0.49,3.98-1.32c0.49-0.36,0.93-0.8,1.3-1.28c0.87-1.12,1.38-2.53,1.38-4.06c0-3.68-2.98-6.66-6.66-6.66 S287.68,185.37,287.68,189.04z"></path> <path d="M287.78,189.04c-0.02,3.5,3.51,5.57,6.56,5.83c3.34,0.5,6.62-2.33,6.11-5.82c-0.35-3.13-3.01-5.61-6.11-5.6 C291.3,183.39,287.77,185.62,287.78,189.04L287.78,189.04z M287.58,189.04c-0.18-3.79,2.57-7.8,6.76-7.73 c6.83,0.07,9.51,7.99,4.93,12.67C294.52,199.2,287.43,195.89,287.58,189.04L287.58,189.04z"></path> </g> <g> <path d="M297.74,192.82c-0.01-0.02-0.02-0.03-0.03-0.05c-0.03-0.04-0.06-0.07-0.11-0.11l0,0c-0.08-0.07-0.2-0.13-0.33-0.18 c-0.01,0-0.01,0-0.01-0.01c-0.58-0.25-1.34-0.34-1.34-0.34c-0.22-0.03-0.39-0.05-0.47-0.06c-0.22-0.18-0.52-0.89-0.57-1.99l0,0 c0,0,0.25-0.58,0.58-0.4c0.51,0.28,1.51-0.86,1.19-2.35c-0.03-0.16-0.08-0.31-0.12-0.44c0.11,0.05,0.23,0.08,0.34,0.08 c0.3,0,0.75-0.76,0.81-1.02c0.06-0.26-0.01-1.1-0.42-1.35c-0.4-0.25-1.03,0.04-1.06,0.05c0.2-0.29,0.9-0.23,1.03-0.21 c-1.63-0.34-1.97,0.71-1.99,0.8c-1.04-0.94-2.62,0.68-3.01,1.12c-0.03,0.02-0.05,0.05-0.08,0.07c-0.09,0.05-0.19,0.14-0.29,0.26 c-0.2,0.25-0.27,0.56-0.27,0.87c0,0.54,0.21,1.03,0.21,1.03c0.09,0.91,0.36,2.03,0.78,2.06c0,0,0.15,0,0.37-0.02 c0,0.01,0,0.02,0,0.03c0.01,0.15,0.01,0.32,0.01,0.49v0.1c0,0.46-0.03,0.89-0.13,0.94c-0.03,0-0.06,0.01-0.09,0.01 c-0.04,0-0.12,0.01-0.12,0.01c-0.36,0.05-0.62,0.08-0.8,0.12c-0.36,0.06-0.45,0.1-0.54,0.17c-0.02,0.02-0.04,0.04-0.06,0.07 c-0.27,0.2-0.75,0.66-1.18,1.55c1.16,0.98,2.66,1.58,4.3,1.58c1.49,0,2.87-0.49,3.98-1.32 C298.13,193.74,297.94,193.18,297.74,192.82z"></path> <g> <path d="M297.71,192.83c-0.01-0.03-0.11-0.12-0.14-0.15c0.02,0.01-0.33-0.18-0.31-0.17c-0.59-0.25-1.21-0.3-1.84-0.35 c-0.55-0.54-0.64-1.35-0.74-2.07c0,0-0.1-0.99-0.1-0.99c0,0.01,0.49,0.89,0.49,0.9c0,0-0.37,0.01-0.37,0.01 c0.09-0.31,0.5-0.76,0.89-0.53c0.26,0,0.47-0.32,0.61-0.62c0.35-0.76,0.11-1.59-0.12-2.36c0,0,0.58,0.1,0.58,0.1 c0.06,0.01,0.11,0.02,0.16,0.04c0.1,0.02-0.03,0.03,0.04,0.01c0.19-0.13,0.41-0.48,0.51-0.71c0.12-0.28,0-1-0.24-1.13 c-0.36-0.24-1.16,0.16-1.56,0.3c0.3-0.33,0.61-0.86,1.11-0.84c0.2-0.02,0.39,0,0.58,0.02l-0.05,0.3 c-0.75-0.21-1.74-0.01-1.91,0.85c-0.99-0.97-2.26,0.29-2.94,1.06c-0.3,0.26-0.54,0.52-0.52,0.94c-0.02,0.38,0.13,0.77,0.25,1.12 c0.07,0.55,0.26,1.5,0.54,1.75c0.16-0.01,0.49-0.03,0.65-0.04c0.01,0.65,0.13,1.34-0.04,1.99c-0.02,0.06-0.08,0.2-0.27,0.31 c-0.05,0-0.15,0.02-0.2,0.02c-0.27,0.04-1.09,0.16-1.22,0.22c-0.46,0.39-0.87,0.89-1.14,1.49c0,0-0.1-0.48-0.1-0.48 c1.06,0.91,2.42,1.47,3.85,1.58c1.42,0.13,2.92-0.22,4.14-1.07c0,0-0.02,0.07-0.02,0.07 C298.12,193.87,297.95,193.33,297.71,192.83L297.71,192.83z M297.78,192.8c0.27,0.51,0.43,1.06,0.62,1.61 c0,0-0.04,0.03-0.04,0.03c-2.47,2.1-6.44,2.08-8.82-0.21c0.35-0.73,0.75-1.44,1.44-1.96c0,0-0.06,0.06-0.06,0.06 c0.02-0.02,0.1-0.11,0.12-0.12c0.53-0.33,1.1-0.26,1.69-0.36c-0.1,0.01,0.07-0.01,0.07-0.01c0,0-0.14,0.04-0.14,0.04 c-0.15,0.11-0.1,0.12-0.12,0.12c0.1-0.44,0.06-0.89,0.06-1.36c0,0,0.38,0.35,0.38,0.35c-1.16,0.21-1.31-1.05-1.46-2.36 c0,0,0.02,0.08,0.02,0.08c-0.21-0.63-0.31-1.34,0.02-1.94c0.15-0.26,0.45-0.43,0.55-0.54c0,0-0.02,0.02-0.02,0.02 c0.79-0.77,2.14-1.97,3.23-1.07c0,0-0.19,0.05-0.19,0.05c0.14-0.42,0.48-0.74,0.89-0.88c0.41-0.13,0.84-0.11,1.24-0.04 l-0.05,0.3c-0.25-0.02-0.71,0-0.85,0.18c0,0-0.23-0.3-0.23-0.3c0.34-0.14,0.75-0.3,1.22-0.09c0.76,0.52,0.82,1.65,0.3,2.31 c-0.15,0.21-0.35,0.5-0.66,0.59c-0.25,0.04-0.37-0.04-0.59-0.09c0,0,0.44-0.41,0.44-0.41c0.4,1.1,0.25,2.73-1.05,3.18 c-0.14,0.04-0.36-0.01-0.48-0.08c-0.17,0.05-0.36,0.51-0.46,0.68c0,0-0.16-0.4-0.16-0.4c-0.01-0.01,0.39-0.1,0.39-0.1 c0.01,0.63,0.04,1.42,0.43,1.93c0.47,0.04,1.56,0.24,2.12,0.63c0,0,0,0,0,0c0,0,0.11,0.12,0.11,0.12 C297.73,192.73,297.78,192.8,297.78,192.8L297.78,192.8z"></path> </g> </g> <g> <path class="st1" d="M287.68,55.2c0,1.53,0.51,2.94,1.38,4.06c0.29,0.37,0.61,0.72,0.97,1.02c1.16,0.98,2.66,1.58,4.3,1.58 c1.49,0,2.87-0.49,3.98-1.32c0.49-0.36,0.93-0.8,1.3-1.28c0.87-1.12,1.38-2.53,1.38-4.06c0-3.68-2.98-6.66-6.66-6.66 S287.68,51.52,287.68,55.2z"></path> <path d="M287.78,55.2c-0.02,3.5,3.51,5.57,6.56,5.83c3.34,0.5,6.62-2.33,6.11-5.82c-0.35-3.13-3.01-5.61-6.11-5.6 C291.3,49.54,287.77,51.77,287.78,55.2L287.78,55.2z M287.58,55.2c-0.18-3.79,2.57-7.8,6.76-7.73c6.83,0.07,9.51,7.99,4.93,12.67 C294.52,65.35,287.43,62.05,287.58,55.2L287.58,55.2z"></path> </g> <g> <path d="M297.74,58.97c-0.01-0.02-0.02-0.03-0.03-0.05c-0.03-0.04-0.06-0.08-0.11-0.11l0,0c-0.08-0.07-0.2-0.13-0.33-0.18 c-0.01,0-0.01,0-0.01-0.01c-0.58-0.25-1.34-0.34-1.34-0.34v0c-0.22-0.03-0.39-0.06-0.47-0.06c-0.05-0.04-0.11-0.12-0.17-0.22v0 c-0.18-0.32-0.37-0.94-0.4-1.77l0,0c0,0,0.25-0.58,0.58-0.4c0.51,0.28,1.51-0.86,1.19-2.35c-0.03-0.16-0.08-0.31-0.12-0.45 c0.11,0.05,0.23,0.08,0.34,0.08c0.3,0,0.75-0.76,0.81-1.02c0.06-0.26-0.01-1.1-0.42-1.35c-0.4-0.24-1.03,0.04-1.06,0.05 c0.2-0.29,0.9-0.23,1.03-0.22c-1.63-0.34-1.97,0.71-1.99,0.8c-1.04-0.94-2.62,0.68-3.01,1.12c-0.03,0.02-0.05,0.05-0.08,0.07 c-0.09,0.05-0.19,0.14-0.29,0.26c-0.2,0.25-0.27,0.56-0.27,0.86c0,0.54,0.21,1.04,0.21,1.04c0.09,0.91,0.36,2.03,0.78,2.06 c0,0,0.15,0,0.37-0.02c0,0.01,0,0.02,0,0.03c0.01,0.15,0.01,0.32,0.01,0.5v0.1c0,0.46-0.03,0.89-0.13,0.94 c-0.03,0-0.06,0.01-0.09,0.01c-0.04,0-0.12,0.01-0.12,0.01c-0.36,0.05-0.62,0.08-0.8,0.12c-0.36,0.06-0.45,0.1-0.54,0.17 c-0.02,0.02-0.04,0.04-0.06,0.07c-0.27,0.2-0.75,0.66-1.18,1.55c0.06,0.05,0.13,0.11,0.19,0.16c0.01,0.01,0.02,0.02,0.03,0.03 c0.05,0.04,0.1,0.08,0.15,0.11c0.03,0.03,0.07,0.05,0.11,0.08c0.04,0.03,0.07,0.05,0.11,0.07c0.05,0.04,0.11,0.07,0.16,0.11 c0.04,0.02,0.07,0.05,0.11,0.07c0.05,0.03,0.09,0.06,0.14,0.08c0.05,0.03,0.1,0.06,0.16,0.09c0.01,0,0.01,0.01,0.01,0.01 c0,0,0.01,0,0.01,0.01h0c0.01,0,0.02,0.01,0.02,0.01c0.04,0.02,0.08,0.04,0.13,0.06c0,0,0.01,0,0.01,0 c0.01,0.01,0.03,0.01,0.04,0.02c0.02,0.01,0.05,0.02,0.07,0.03c0.02,0.01,0.05,0.02,0.07,0.03c0.05,0.02,0.11,0.05,0.16,0.07 c0.05,0.02,0.11,0.05,0.16,0.07c0.03,0.01,0.05,0.02,0.08,0.03c0.02,0.01,0.05,0.02,0.07,0.03c0.05,0.02,0.1,0.04,0.15,0.05 c0.05,0.02,0.11,0.03,0.16,0.05c0.05,0.01,0.09,0.03,0.14,0.04c0.01,0,0.01,0,0.01,0c0.03,0.01,0.06,0.02,0.09,0.02 c0.16,0.04,0.32,0.08,0.49,0.11c0.07,0.01,0.14,0.03,0.21,0.04c0.02,0,0.04,0.01,0.06,0.01c0,0,0.01,0,0.01,0c0,0,0.01,0,0.01,0 c0.05,0.01,0.09,0.01,0.14,0.02c0.01,0,0.02,0,0.03,0c0.01,0,0.01,0,0.02,0c0.04,0.01,0.09,0.01,0.13,0.01c0.01,0,0.02,0,0.02,0 c0.01,0,0.03,0,0.04,0.01c0.08,0.01,0.16,0.01,0.23,0.02h0.01c0.02,0,0.05,0,0.07,0c0.02,0,0.03,0,0.05,0 c0.08,0,0.15,0.01,0.23,0.01c1.49,0,2.87-0.49,3.98-1.32C298.13,59.89,297.94,59.34,297.74,58.97z"></path> <g> <path d="M297.71,58.99c-0.01-0.04-0.11-0.12-0.14-0.15c-0.47-0.29-1.09-0.43-1.66-0.48c0,0,0.08-0.07,0.08-0.07 c0,0,0,0.08,0,0.08c-0.08-0.01-0.5-0.05-0.59-0.06c0,0-0.01-0.02-0.01-0.02l-0.2-0.24c-0.41-0.59-0.54-1.92-0.62-2.8 c0,0,0.5,0.89,0.5,0.89c0.01,0.01-0.37,0.01-0.37,0.01c0.09-0.2,0.17-0.38,0.43-0.54c0.21-0.14,0.42,0.03,0.56-0.01 c0.97-0.58,0.72-2.04,0.4-2.97c0,0,0.58,0.1,0.58,0.1c0.06,0.01,0.11,0.02,0.16,0.04c0.1,0.02-0.03,0.03,0.04,0.01 c0.19-0.13,0.41-0.48,0.51-0.71c0.12-0.28,0-1-0.24-1.13c-0.37-0.24-1.16,0.17-1.57,0.3c0,0,0.49-0.57,0.49-0.57 c0.37-0.37,0.78-0.28,1.2-0.25c0,0-0.05,0.3-0.05,0.3c-0.69-0.18-1.6-0.06-1.85,0.69c0,0-0.05,0.17-0.05,0.17 c-1.05-1.01-2.32,0.39-3.04,1.16c-0.61,0.45-0.44,1.3-0.18,1.92c0.09,0.59,0.19,1.3,0.52,1.77c0.02,0.02,0.04,0.03,0.04,0.03 c0.03,0-0.09-0.01,0-0.01c0.16-0.01,0.49-0.03,0.65-0.04c0,0,0.02,0.37,0.02,0.37c0.01,0.53,0.09,1.09-0.06,1.62 c-0.01,0.05-0.09,0.21-0.27,0.31c-0.35,0.04-1.19,0.13-1.44,0.26c-0.29,0.23-0.9,0.91-1.12,1.48c0,0-0.1-0.48-0.1-0.48 c0.15,0.1,0.38,0.33,0.54,0.41c0.27,0.18,0.48,0.3,0.66,0.42c-0.03-0.03-0.06-0.06-0.1-0.08c0,0-0.17-0.04-0.17-0.04 c0,0,0.1,0,0.1,0c0.04,0.02,0.18,0.09,0.22,0.12c0,0-0.17-0.04-0.17-0.04c0.13,0,0.2,0.06,0.23,0.07 c0.3,0.16,0.76,0.33,1.09,0.44c0.08,0.03,0.74,0.19,0.65,0.17c0.08,0,0.2,0.04,0.25,0.1c0,0-0.19-0.1-0.19-0.1 c1.4,0.3,3.49,0.04,4.87-0.98c0,0-0.02,0.07-0.02,0.07C298.12,60.02,297.95,59.48,297.71,58.99L297.71,58.99z M297.78,58.95 c0.27,0.51,0.43,1.07,0.62,1.61c-1.27,1.08-3.22,1.72-4.74,1.58c-0.23-0.02-0.09-0.01-0.34-0.03c0,0-0.19-0.1-0.19-0.1 c0.04,0.06,0.16,0.1,0.23,0.1c-0.57-0.07-1.08-0.18-1.61-0.38c-0.19-0.07-0.44-0.18-0.54-0.23c-0.05-0.02,0.1,0.05,0.17,0.04 c-0.09-0.01-0.23-0.06-0.32-0.11c0,0,0.17,0.04,0.17,0.04c0,0-0.09,0-0.09,0s-0.08-0.04-0.08-0.04 c-0.04-0.02-0.08-0.05-0.11-0.08c0,0,0.16,0.1,0.16,0.1c-0.36-0.17-0.63-0.35-0.93-0.56c0,0,0.02,0.02,0.02,0.02 c-0.2-0.14-0.46-0.36-0.65-0.51c0.27-0.66,0.96-1.67,1.39-1.93c0.03-0.03,0.08-0.09,0.11-0.11c0.61-0.35,1.12-0.26,1.78-0.37 c0,0-0.16,0.04-0.16,0.04c-0.14,0.1-0.1,0.11-0.11,0.11c0,0,0.01-0.02,0.01-0.04c0.08-0.43,0.05-0.87,0.05-1.32 c0,0,0.37,0.35,0.37,0.35c-0.21,0-0.5,0.06-0.69-0.08c-0.63-0.45-0.74-1.85-0.74-2.2c-0.35-0.82-0.22-2.05,0.48-2.41 c0.74-0.7,2.18-2.08,3.3-1.14c0,0-0.19,0.05-0.19,0.05c0.14-0.42,0.48-0.74,0.89-0.88c0.41-0.13,0.84-0.12,1.24-0.04 c0,0-0.05,0.3-0.05,0.3c-0.25-0.02-0.72,0-0.85,0.18c0,0-0.24-0.29-0.24-0.29c0.35-0.15,0.76-0.3,1.23-0.09 c0.76,0.52,0.82,1.65,0.3,2.31c-0.15,0.21-0.35,0.5-0.66,0.59c-0.25,0.03-0.37-0.04-0.59-0.09c0,0,0.44-0.41,0.44-0.41 c0.27,0.73,0.29,1.61-0.09,2.33c-0.21,0.42-0.77,1.08-1.39,0.8c-0.17-0.12-0.42,0.51-0.5,0.65c0,0-0.16-0.39-0.17-0.39 c0,0,0.39-0.1,0.39-0.1c0,0.59,0.05,1.2,0.29,1.72c0,0.01,0.02,0.04,0.01,0.05c-0.06-0.16,0.11,0.15,0.12,0.15 c0,0-0.05-0.02-0.05-0.02l0.47,0.08l-0.08,0.07c0,0,0-0.08,0-0.09c0.62,0.1,1.25,0.24,1.78,0.58c-0.01-0.01,0.11,0.12,0.11,0.12 C297.74,58.89,297.78,58.96,297.78,58.95L297.78,58.95z"></path> </g> </g> <g> <path class="st1" d="M426.31,332.05c0.72,2.09-55.23,2.29-86.48,0c4.34-1.7,20.93-8.04,38.13-12.4c0.03-0.01,0.05-0.01,0.08-0.02 c14.77-3.74,29.98-6,38.24-2.6l0.06,0.09C416.35,317.11,425.59,329.96,426.31,332.05z"></path> <path d="M426.41,332.01c0.05,0.37-0.36,0.4-0.57,0.5c-3.32,0.75-6.75,0.76-10.13,1.06c-25.4,2.24-52.39-0.06-77.87-1.18 c6.71-2.76,13.46-5.46,20.34-7.81c14.78-4.89,44.04-14.48,58.52-7.83c0,0,4.97,7.54,4.97,7.54 C423.03,326.58,425.32,329.6,426.41,332.01L426.41,332.01z M426.22,332.08c-2.79-5.21-6.82-10.03-10.33-14.78 c0,0,0.22,0.18,0.22,0.18c-13.97-4.56-43,4.4-57.41,8.71c-6.26,1.98-12.53,3.99-18.7,6.27l-0.13-0.85 c14.39,1.4,28.87,1.25,43.31,1.15c10.83-0.07,21.67,0.41,32.5,0.33c3.15-0.07,6.32-0.12,9.44-0.62 C425.47,332.42,426.07,332.29,426.22,332.08L426.22,332.08z"></path> </g> <g> <path class="st1" d="M172.33,260.15c0.02-1.86,1.54-3.35,3.4-3.34c1.86,0.02,3.35,1.54,3.34,3.4c-0.02,1.86-1.54,3.35-3.4,3.34 C173.81,263.53,172.31,262.01,172.33,260.15z"></path> <path d="M172.23,260.15c-0.19-3.93,3.49-5.76,6.1-2.55c2.51,2.69,1.27,6.94-2.68,7.02C173.18,264.61,172.07,262.24,172.23,260.15 L172.23,260.15z M172.43,260.15c-0.01,1.69,1.95,2.36,3.25,2.33c1.34-0.01,2.46-0.91,2.84-2.27c0.47-1.75-1.2-3.03-2.8-2.56 C174.41,257.92,172.44,258.39,172.43,260.15L172.43,260.15z"></path> </g> </g> <g> <path d="M93.31,331.94c17.7-0.01,35.35,1.1,53.01,2.04c11.99,0.6,75.18-1.83,88.36-2.04c0,0,0.02,0.2,0.02,0.2 c-17.57,2.29-35.29,3.24-53,3.22c-11.8,0.1-23.6-0.65-35.39-0.73c-10.41,0.06-25.14,0.09-35.38-0.81 c-5.89-0.42-11.77-0.95-17.63-1.68C93.29,332.14,93.31,331.94,93.31,331.94L93.31,331.94z"></path> </g> <g> <path d="M313.32,331.95c17.71-0.05,35.35,1.06,53.01,2.01c11.99,0.62,75.18-1.8,88.36-2.01c0,0,0.02,0.2,0.02,0.2 c-17.56,2.33-35.29,3.27-53,3.23c-11.8,0.09-23.6-0.68-35.39-0.77c-10.41,0.06-25.14,0.08-35.38-0.81 c-5.89-0.41-11.77-0.94-17.63-1.66C313.31,332.15,313.32,331.95,313.32,331.95L313.32,331.95z"></path> </g> </g> </svg> 